<svg xmlns="http://www.w3.org/2000/svg" xmlns:v="https://svgstorm.com"
viewBox = "0 0 1024 1024"
width="1024"
height="1024">
<g fill="None" fill-opacity="0.0" stroke="#FCFDF6" stroke-opacity="1.00" stroke-width="0.3"><path d="
M 0.00 1024.00 
L 1024.00 1024.00
L 1024.00 0.00
L 0.00 0.00
L 0.00 1024.00
M 594.00 140.00 
C 633.58 151.85 677.63 163.87 712.70 186.30 C 747.76 208.73 776.01 228.09 803.77 260.23 C 831.53 292.37 850.98 321.29 868.92 360.08 C 886.86 398.86 898.57 448.34 901.00 493.00
C 904.03 504.86 902.09 518.00 902.00 531.00
C 906.19 524.65 903.09 539.30 901.00 542.00
C 888.72 541.83 876.03 540.48 865.00 537.00
C 823.95 529.36 788.02 500.15 773.23 460.77 C 758.44 421.39 749.27 377.08 725.25 341.75 C 701.23 306.43 677.88 280.91 642.32 255.68 C 606.77 230.44 551.91 219.73 507.00 224.00 C 462.09 228.27 420.42 243.65 386.92 271.92 C 353.41 300.18 334.47 327.45 312.75 364.75 C 291.02 402.04 287.44 447.85 264.75 485.75 C 242.05 523.64 192.47 542.11 150.00 540.00
C 147.45 520.28 149.84 499.86 150.00 480.00
C 147.38 466.43 154.09 451.41 154.00 437.00
C 158.10 440.73 156.69 427.36 160.00 425.00
C 172.82 391.12 181.31 350.40 202.25 320.25 C 223.20 290.11 240.13 263.88 267.75 238.75 C 295.37 213.63 320.98 193.03 354.03 178.03 C 387.08 163.03 425.54 142.97 463.00 140.00
C 482.06 134.45 500.93 133.20 523.00 134.00 C 545.07 134.80 562.30 132.43 584.00 136.00
C 577.17 139.41 591.99 137.35 594.00 140.00
M 510.00 306.00 
C 508.92 306.61 508.10 306.58 507.00 307.00
C 501.03 310.38 496.29 315.01 488.98 315.98 C 481.66 316.94 476.94 322.45 470.30 324.30 C 463.65 326.15 454.64 326.41 447.78 328.78 C 440.92 331.15 434.23 333.58 426.92 334.92 C 419.62 336.27 414.81 340.83 409.77 342.78 C 404.74 344.73 393.45 346.24 388.92 348.92 C 384.40 351.61 372.65 350.30 375.00 356.00
C 360.57 357.90 349.56 372.22 336.00 374.00
C 335.35 370.46 337.45 363.01 341.00 364.00
C 344.19 357.69 347.83 351.78 352.00 346.00
C 355.89 336.34 363.79 329.75 368.00 320.00
C 376.75 316.45 382.39 306.88 389.75 300.75 C 397.11 294.63 406.33 288.20 411.00 281.00
C 412.62 282.83 414.14 280.91 416.00 281.00
C 420.50 277.52 425.17 274.72 430.00 272.00
C 433.66 269.22 436.77 265.05 442.00 265.00
C 441.43 261.78 438.20 261.86 440.00 258.00
C 442.24 260.15 445.21 260.17 448.00 261.00
C 456.29 252.94 469.12 253.10 480.23 248.23 C 491.33 243.36 506.84 245.28 517.00 242.00
C 518.26 252.61 516.44 264.36 516.00 275.00 C 515.56 285.64 521.57 299.86 510.00 306.00
M 577.00 252.00 
C 601.85 258.73 621.39 273.62 643.00 287.00
C 652.49 292.87 658.87 301.06 666.75 308.25 C 674.63 315.44 682.08 323.54 688.00 332.00
C 693.38 339.69 699.64 346.93 704.00 355.00
C 707.94 360.57 712.69 364.96 714.00 372.00
C 707.66 366.08 700.65 368.16 694.25 363.75 C 687.86 359.33 681.02 355.81 673.99 353.01 C 666.96 350.21 659.39 346.28 651.99 344.01 C 644.60 341.74 637.87 337.58 629.78 335.22 C 621.68 332.86 612.36 332.84 604.99 329.01 C 597.63 325.17 586.34 327.19 578.98 324.02 C 571.62 320.86 562.70 319.79 555.75 316.25 C 548.81 312.70 540.83 311.47 536.75 304.25 C 532.66 297.03 533.40 287.73 533.01 278.99 C 532.61 270.25 536.28 260.85 534.00 251.00 C 531.72 241.15 546.91 244.14 554.02 244.02 C 561.13 243.91 572.46 247.67 577.00 252.00
M 496.00 370.00 
C 481.86 391.92 454.95 401.27 434.25 415.25 C 413.54 429.22 390.62 444.96 380.00 469.00
C 374.66 481.08 368.99 492.60 366.69 505.69 C 364.40 518.79 356.83 530.05 353.08 542.08 C 349.34 554.12 343.32 566.33 336.00 574.00
C 321.14 600.38 296.40 629.87 267.00 641.00
C 266.47 642.28 267.97 642.86 268.00 644.00
C 258.87 641.76 253.84 651.21 244.93 652.93 C 236.01 654.64 225.17 656.42 216.00 658.00
C 218.38 661.07 207.88 660.08 202.93 660.93 C 197.98 661.77 188.31 660.87 183.33 661.67 C 178.34 662.46 175.38 657.62 172.75 654.81 C 170.11 652.01 171.21 644.72 169.93 642.92 C 168.65 641.12 165.28 630.70 162.00 632.00
C 163.73 623.84 160.81 617.02 160.00 609.00 C 159.19 600.98 155.42 595.97 154.01 587.99 C 152.60 580.02 148.91 575.64 149.93 566.92 C 150.96 558.20 162.55 562.93 170.00 562.00
C 184.75 562.00 199.49 558.74 213.00 554.00
C 218.20 550.95 224.08 548.12 230.00 546.00
C 225.62 543.06 234.86 544.11 237.00 543.00
C 234.04 539.32 240.73 539.57 243.00 539.00
C 242.51 535.23 251.19 532.86 254.75 528.75 C 258.30 524.63 262.41 519.92 266.10 517.10 C 269.79 514.28 274.21 511.96 277.75 506.75 C 281.29 501.55 284.08 496.50 288.00 492.00
C 297.11 469.60 304.64 440.99 316.31 420.31 C 327.97 399.62 351.30 385.07 371.00 375.00
C 378.85 369.99 384.49 366.90 392.03 362.03 C 399.56 357.15 407.94 356.26 415.00 355.00
C 423.29 351.08 432.06 349.05 441.00 347.00
C 440.43 346.06 439.85 345.18 440.00 344.00
C 449.02 344.56 456.89 340.12 465.00 339.00 C 473.11 337.88 482.60 336.53 486.00 330.00
C 496.30 332.71 505.07 324.29 515.00 323.00
C 520.59 332.60 510.84 339.70 510.08 349.08 C 509.32 358.46 502.97 363.63 496.00 370.00
M 568.00 336.00 
C 588.78 340.76 606.54 344.09 624.00 347.00
C 623.04 349.76 625.82 350.51 627.00 352.00
C 635.09 354.66 643.53 358.03 651.67 360.33 C 659.81 362.63 666.65 368.49 674.23 371.77 C 681.81 375.05 688.93 379.49 695.70 384.30 C 702.47 389.12 708.84 393.30 715.25 398.75 C 721.65 404.21 726.65 410.09 730.92 417.08 C 735.19 424.08 738.44 431.76 741.32 439.68 C 744.21 447.59 748.22 456.70 749.99 465.01 C 751.76 473.32 757.71 480.38 760.77 488.23 C 763.83 496.08 768.50 502.68 773.75 509.25 C 779.01 515.81 783.34 521.72 790.08 526.92 C 796.82 532.12 801.32 536.97 809.08 540.92 C 816.83 544.88 822.76 549.66 831.75 552.25 C 840.73 554.84 847.35 558.90 858.02 559.98 C 868.70 561.05 875.89 564.46 889.00 563.00 C 902.11 561.54 896.75 573.02 896.01 583.01
C 895.10 597.19 892.85 608.17 889.22 620.22 C 885.59 632.28 881.80 642.22 877.07 654.07 C 872.35 665.93 855.01 662.02 844.00 660.00 C 832.98 657.99 818.60 655.91 806.99 653.01 C 795.38 650.11 785.95 643.79 777.00 637.00
C 757.23 622.00 735.65 610.65 721.70 588.30 C 707.75 565.96 695.54 542.61 689.00 517.00
C 687.07 511.64 684.43 504.94 682.68 499.32 C 680.93 493.70 676.89 487.89 675.01 482.99 C 673.13 478.09 672.67 470.61 666.00 472.00
C 670.18 463.77 656.05 457.07 656.00 448.00
C 643.10 432.29 628.63 422.34 611.77 411.23 C 594.91 400.12 576.58 393.66 561.92 379.08 C 547.26 364.50 536.91 344.54 537.00 324.00
C 547.38 327.83 557.13 333.62 568.00 336.00
M 527.00 369.00 
C 530.68 377.74 536.15 385.15 543.25 391.75 C 550.34 398.35 557.62 403.84 565.25 409.75 C 572.88 415.66 581.15 419.21 589.23 424.77 C 597.31 430.33 605.66 434.54 613.08 440.92 C 620.49 447.31 626.31 452.51 631.92 461.08 C 637.53 469.65 636.86 484.84 634.00 495.00 C 631.15 505.16 630.92 514.80 623.25 523.25 C 615.57 531.70 611.28 535.30 599.32 539.32 C 587.36 543.34 575.63 538.69 561.00 541.00 C 546.37 543.31 550.89 525.31 551.00 514.00 C 551.11 502.69 552.21 486.11 548.67 476.33 C 545.13 466.54 537.21 461.39 527.77 458.23 C 518.33 455.07 504.35 461.94 499.70 469.70 C 495.04 477.45 488.00 482.59 483.23 492.23 C 478.46 501.87 472.61 504.52 467.23 516.23 C 461.85 527.94 454.84 517.77 450.69 508.31 C 446.55 498.84 437.73 493.92 435.08 484.92 C 432.43 475.92 419.96 469.01 420.36 460.31 C 420.75 451.60 433.19 445.63 439.08 440.08 C 444.97 434.53 455.35 428.64 462.25 423.25 C 469.15 417.86 478.90 413.84 486.25 408.25 C 493.59 402.66 502.07 397.68 508.75 390.75 C 515.44 383.82 519.88 373.69 527.00 369.00
M 519.00 835.00 
C 525.49 835.81 531.08 834.66 536.68 832.68 C 542.28 830.70 543.81 825.52 547.00 824.00
C 549.68 812.04 545.91 796.95 548.00 785.00 C 550.09 773.05 550.69 761.16 549.00 748.00 C 547.31 734.85 547.82 723.37 562.02 726.98 C 576.23 730.58 587.07 726.08 599.07 724.07 C 611.08 722.07 612.43 708.18 613.00 698.00
C 607.96 698.34 609.10 693.65 608.00 689.00
C 599.89 683.95 590.65 683.08 581.00 683.00 C 571.36 682.92 557.44 685.01 552.00 682.00
C 546.62 669.66 553.00 653.57 551.00 640.00 C 549.00 626.43 552.50 609.85 551.00 596.00
C 576.43 596.21 608.56 598.63 630.23 587.23 C 651.90 575.83 660.96 559.43 672.00 540.00
C 686.81 578.60 704.93 611.96 738.75 639.25 C 772.57 666.54 817.69 681.97 862.00 682.00
C 857.59 694.01 849.11 704.59 843.00 716.00
C 836.66 726.68 828.23 737.80 821.00 746.00
C 793.48 777.23 764.71 812.19 728.00 832.00
C 725.82 833.67 721.17 836.42 723.00 839.00
C 710.35 843.17 703.69 850.07 691.78 854.78 C 679.86 859.48 666.21 867.12 653.00 870.00 C 639.78 872.87 627.78 881.17 612.92 883.92 C 598.07 886.68 580.89 887.87 564.99 889.99 C 549.10 892.12 527.24 892.80 511.00 892.00 C 494.76 891.20 477.45 891.56 464.00 885.00
C 444.30 881.13 423.99 875.55 404.93 870.07 C 385.86 864.60 370.65 853.66 352.00 848.00
C 346.62 846.37 338.28 841.96 333.92 839.08 C 329.56 836.21 321.19 835.59 318.25 830.41 C 315.30 825.23 305.71 824.99 304.00 818.00
C 303.91 817.65 303.28 817.23 303.00 817.00
C 288.63 817.82 277.98 793.16 265.00 790.00
C 262.36 782.00 253.61 779.41 248.70 772.30 C 243.79 765.20 238.58 760.59 233.08 754.92 C 227.59 749.25 225.26 737.77 221.00 732.00
C 207.51 717.11 197.34 699.38 188.00 682.00
C 215.68 680.63 242.98 676.96 268.00 666.00
C 272.61 663.51 279.95 660.67 282.00 656.00
C 295.86 653.61 307.19 641.12 316.70 631.70 C 326.20 622.27 337.75 611.70 344.78 599.78 C 351.80 587.85 361.24 574.09 365.00 562.00
C 362.17 563.10 360.30 564.68 361.00 560.00
C 363.04 560.90 365.13 559.76 367.00 562.00
C 368.07 560.33 368.43 555.17 371.00 557.00
C 373.23 551.25 375.54 545.72 378.00 540.00
C 379.74 567.60 378.78 600.54 379.78 628.22 C 380.78 655.90 424.70 657.64 428.32 630.32 C 431.94 603.00 427.02 569.14 429.00 541.00
C 435.90 549.69 441.40 559.85 448.00 569.00
C 449.95 570.39 453.89 570.70 455.00 569.00
C 456.22 575.91 455.82 579.11 462.00 581.00
C 462.11 577.50 468.16 576.81 466.00 573.00
C 469.37 570.56 467.53 573.75 469.00 575.00
C 471.78 564.85 478.57 560.65 483.75 553.74 C 488.93 546.83 492.55 538.41 500.00 533.00
C 502.16 542.88 500.56 553.22 501.00 564.00 C 501.44 574.78 500.52 585.97 501.00 597.00 C 501.48 608.03 500.15 617.58 501.00 629.00 C 501.85 640.42 499.27 649.84 501.00 662.00 C 502.73 674.16 500.58 683.72 488.00 682.00 C 475.42 680.28 466.24 681.33 456.00 682.00 C 445.76 682.67 444.08 689.49 438.77 695.77 C 433.46 702.04 436.56 714.34 442.25 720.75 C 447.94 727.16 458.43 729.02 468.00 728.00 C 477.57 726.98 491.07 728.76 501.00 728.00
C 500.63 747.18 501.49 771.32 501.00 790.00 C 500.51 808.68 498.61 829.13 519.00 835.00 Z"/>
</g>
<g fill="None" fill-opacity="0.0" stroke="#FCEEE4" stroke-opacity="1.00" stroke-width="0.3"><path d="
M 463.00 140.00 
C 484.86 138.27 505.23 134.75 528.00 135.00 C 550.77 135.25 572.12 136.94 594.00 140.00
C 591.99 137.35 577.17 139.41 584.00 136.00
C 562.30 132.43 545.07 134.80 523.00 134.00 C 500.93 133.20 482.06 134.45 463.00 140.00 Z"/>
</g>
<g fill="None" fill-opacity="0.0" stroke="#FCC5B7" stroke-opacity="1.00" stroke-width="0.3"><path d="
M 463.00 140.00 
C 425.54 142.97 387.08 163.03 354.03 178.03 C 320.98 193.03 295.37 213.63 267.75 238.75 C 240.13 263.88 223.20 290.11 202.25 320.25 C 181.31 350.40 172.82 391.12 160.00 425.00
C 156.20 443.02 153.41 462.31 150.00 480.00
C 149.84 499.86 147.45 520.28 150.00 540.00
C 192.47 542.11 242.05 523.64 264.75 485.75 C 287.44 447.85 291.02 402.04 312.75 364.75 C 334.47 327.45 353.41 300.18 386.92 271.92 C 420.42 243.65 462.09 228.27 507.00 224.00 C 551.91 219.73 606.77 230.44 642.32 255.68 C 677.88 280.91 701.23 306.43 725.25 341.75 C 749.27 377.08 758.44 421.39 773.23 460.77 C 788.02 500.15 823.95 529.36 865.00 537.00
C 875.89 539.03 878.44 536.88 890.02 539.98 C 901.61 543.08 902.09 531.77 901.00 522.00 C 899.91 512.23 901.53 502.76 901.00 493.00
C 898.57 448.34 886.86 398.86 868.92 360.08 C 850.98 321.29 831.53 292.37 803.77 260.23 C 776.01 228.09 747.76 208.73 712.70 186.30 C 677.63 163.87 633.58 151.85 594.00 140.00
C 572.12 136.94 550.77 135.25 528.00 135.00 C 505.23 134.75 484.86 138.27 463.00 140.00
M 528.00 186.00 
C 537.29 188.49 532.91 204.40 523.33 201.67 C 513.75 198.93 517.84 183.27 528.00 186.00
M 441.00 200.00 
C 453.50 202.09 442.23 217.05 432.98 215.98 C 423.72 214.90 417.01 225.71 407.75 226.75 C 398.50 227.80 392.76 239.06 381.98 237.98 C 371.20 236.89 379.95 221.66 389.23 221.23 C 398.51 220.80 404.18 210.04 413.23 209.23 C 422.28 208.42 431.67 198.44 441.00 200.00
M 615.00 200.00 
C 621.58 201.05 630.38 206.29 637.01 207.99 C 643.64 209.70 652.16 215.44 657.70 218.30 C 663.24 221.17 676.31 223.47 674.99 232.01 C 673.67 240.55 660.32 235.27 654.75 231.25 C 649.19 227.22 640.89 224.67 633.77 221.23 C 626.65 217.78 619.51 215.75 610.98 213.02 C 602.44 210.30 603.00 198.08 615.00 200.00
M 352.00 241.00 
C 353.69 243.16 357.52 246.26 360.00 248.00
C 358.86 250.52 357.76 253.08 358.00 256.00
C 355.61 255.82 351.57 257.19 355.00 259.00
C 338.86 262.51 331.25 292.13 312.00 282.00
C 312.64 271.39 322.39 265.96 329.25 259.25 C 336.11 252.55 341.65 243.73 352.00 241.00
M 702.00 244.00 
C 708.24 245.39 711.15 254.13 717.68 256.32 C 724.21 258.51 724.33 267.23 731.75 270.25 C 739.18 273.27 736.37 287.38 728.33 283.67 C 720.29 279.96 721.17 273.35 714.25 269.75 C 707.33 266.16 705.97 260.46 698.75 257.25 C 691.53 254.04 691.18 241.58 702.00 244.00
M 778.00 335.00 
C 785.24 337.33 782.50 346.75 787.97 351.03 C 793.45 355.30 791.69 368.72 783.33 364.67 C 774.97 360.62 778.32 354.61 772.25 349.75 C 766.17 344.89 768.99 332.11 778.00 335.00
M 281.00 336.00 
C 283.60 348.07 277.88 350.82 271.68 360.68 C 265.48 370.54 253.24 360.80 260.92 351.92 C 268.59 343.04 266.92 333.51 281.00 336.00
M 255.00 381.00 
C 263.03 382.76 255.80 407.48 247.00 404.00 C 238.19 400.51 244.57 378.72 255.00 381.00
M 800.00 382.00 
C 806.94 384.86 807.75 404.79 799.32 402.66 C 790.89 400.54 790.77 378.20 800.00 382.00
M 826.00 442.00 
C 830.78 443.50 845.85 441.00 847.75 448.25 C 849.66 455.50 835.39 457.56 829.00 457.00 C 822.61 456.44 827.72 475.05 820.75 476.75 C 813.77 478.44 811.36 462.98 811.00 458.00
C 803.76 456.68 791.78 457.00 790.00 448.00
C 796.66 445.23 803.01 440.73 811.00 442.00
C 811.94 436.26 809.85 424.53 818.01 424.01 C 826.16 423.49 825.14 436.26 826.00 442.00 Z"/>
</g>
<g fill="None" fill-opacity="0.0" stroke="#FBF1EA" stroke-opacity="1.00" stroke-width="0.3"><path d="
M 528.00 186.00 
C 517.84 183.27 513.75 198.93 523.33 201.67 C 532.91 204.40 537.29 188.49 528.00 186.00 Z"/>
</g>
<g fill="None" fill-opacity="0.0" stroke="#FBF7EF" stroke-opacity="1.00" stroke-width="0.3"><path d="
M 441.00 200.00 
C 431.67 198.44 422.28 208.42 413.23 209.23 C 404.18 210.04 398.51 220.80 389.23 221.23 C 379.95 221.66 371.20 236.89 381.98 237.98 C 392.76 239.06 398.50 227.80 407.75 226.75 C 417.01 225.71 423.72 214.90 432.98 215.98 C 442.23 217.05 453.50 202.09 441.00 200.00 Z"/>
</g>
<g fill="None" fill-opacity="0.0" stroke="#FCF6EF" stroke-opacity="1.00" stroke-width="0.3"><path d="
M 615.00 200.00 
C 603.00 198.08 602.44 210.30 610.98 213.02 C 619.51 215.75 626.65 217.78 633.77 221.23 C 640.89 224.67 649.19 227.22 654.75 231.25 C 660.32 235.27 673.67 240.55 674.99 232.01 C 676.31 223.47 663.24 221.17 657.70 218.30 C 652.16 215.44 643.64 209.70 637.01 207.99 C 630.38 206.29 621.58 201.05 615.00 200.00 Z"/>
</g>
<g fill="None" fill-opacity="0.0" stroke="#F5D5C8" stroke-opacity="1.00" stroke-width="0.3"><path d="
M 352.00 241.00 
C 341.65 243.73 336.11 252.55 329.25 259.25 C 322.39 265.96 312.64 271.39 312.00 282.00
C 331.25 292.13 338.86 262.51 355.00 259.00
C 351.57 257.19 355.61 255.82 358.00 256.00
C 357.76 253.08 358.86 250.52 360.00 248.00
C 357.52 246.26 353.69 243.16 352.00 241.00
M 354.00 245.00 
C 361.51 247.26 355.21 257.86 349.75 259.75 C 344.30 261.65 339.29 269.34 333.92 271.92 C 328.55 274.50 325.13 285.59 317.99 283.99 C 310.85 282.39 315.75 270.70 321.25 268.25 C 326.74 265.80 330.63 257.52 336.23 255.23 C 341.83 252.94 347.07 242.91 354.00 245.00 Z"/>
</g>
<g fill="None" fill-opacity="0.0" stroke="#CFF8F5" stroke-opacity="1.00" stroke-width="0.3"><path d="
M 430.00 272.00 
C 455.99 257.36 484.17 246.24 515.00 246.00
C 515.00 253.67 515.00 261.33 515.00 269.00
C 476.41 271.76 438.74 278.79 403.00 292.00
C 406.15 286.98 412.43 285.28 416.00 281.00
C 414.14 280.91 412.62 282.83 411.00 281.00
C 406.33 288.20 397.11 294.63 389.75 300.75 C 382.39 306.88 376.75 316.45 368.00 320.00
C 363.79 329.75 355.89 336.34 352.00 346.00
C 363.44 330.14 373.65 318.68 392.69 311.69 C 411.74 304.71 428.33 296.57 449.00 293.00 C 469.67 289.43 492.95 282.44 515.00 283.00
C 514.46 291.07 517.49 300.61 510.00 306.00
C 521.57 299.86 515.56 285.64 516.00 275.00 C 516.44 264.36 518.26 252.61 517.00 242.00
C 506.84 245.28 491.33 243.36 480.23 248.23 C 469.12 253.10 456.29 252.94 448.00 261.00
C 445.21 260.17 442.24 260.15 440.00 258.00
C 438.20 261.86 441.43 261.78 442.00 265.00
C 436.77 265.05 433.66 269.22 430.00 272.00 Z"/>
</g>
<g fill="None" fill-opacity="0.0" stroke="#D0F7F4" stroke-opacity="1.00" stroke-width="0.3"><path d="
M 704.00 355.00 
C 706.51 359.65 709.84 363.86 711.00 369.00
C 701.67 363.40 693.32 358.18 682.92 354.08 C 672.53 349.97 662.78 344.98 651.93 341.07 C 641.07 337.17 630.35 333.09 618.92 330.08 C 607.50 327.06 595.86 324.50 583.99 322.01 C 572.12 319.52 562.73 315.31 550.93 311.07 C 539.12 306.84 532.16 295.40 536.00 282.00
C 563.59 284.54 596.64 288.76 622.22 296.78 C 647.81 304.79 669.78 311.91 688.00 332.00
C 682.08 323.54 674.63 315.44 666.75 308.25 C 658.87 301.06 652.49 292.87 643.00 287.00
C 643.76 287.83 644.48 289.04 645.00 290.00
C 610.68 276.79 573.56 271.09 536.00 269.00
C 536.00 261.33 536.00 253.67 536.00 246.00
C 550.25 245.70 563.56 249.09 577.00 252.00
C 572.46 247.67 561.13 243.91 554.02 244.02 C 546.91 244.14 531.72 241.15 534.00 251.00 C 536.28 260.85 532.61 270.25 533.01 278.99 C 533.40 287.73 532.66 297.03 536.75 304.25 C 540.83 311.47 548.81 312.70 555.75 316.25 C 562.70 319.79 571.62 320.86 578.98 324.02 C 586.34 327.19 597.63 325.17 604.99 329.01 C 612.36 332.84 621.68 332.86 629.78 335.22 C 637.87 337.58 644.60 341.74 651.99 344.01 C 659.39 346.28 666.96 350.21 673.99 353.01 C 681.02 355.81 687.86 359.33 694.25 363.75 C 700.65 368.16 707.66 366.08 714.00 372.00
C 712.69 364.96 707.94 360.57 704.00 355.00 Z"/>
</g>
<g fill="None" fill-opacity="0.0" stroke="#FBF8F0" stroke-opacity="1.00" stroke-width="0.3"><path d="
M 702.00 244.00 
C 691.18 241.58 691.53 254.04 698.75 257.25 C 705.97 260.46 707.33 266.16 714.25 269.75 C 721.17 273.35 720.29 279.96 728.33 283.67 C 736.37 287.38 739.18 273.27 731.75 270.25 C 724.33 267.23 724.21 258.51 717.68 256.32 C 711.15 254.13 708.24 245.39 702.00 244.00 Z"/>
</g>
<g fill="None" fill-opacity="0.0" stroke="#FBF9F1" stroke-opacity="1.00" stroke-width="0.3"><path d="
M 354.00 245.00 
C 347.07 242.91 341.83 252.94 336.23 255.23 C 330.63 257.52 326.74 265.80 321.25 268.25 C 315.75 270.70 310.85 282.39 317.99 283.99 C 325.13 285.59 328.55 274.50 333.92 271.92 C 339.29 269.34 344.30 261.65 349.75 259.75 C 355.21 257.86 361.51 247.26 354.00 245.00 Z"/>
</g>
<g fill="None" fill-opacity="0.0" stroke="#77BEBE" stroke-opacity="1.00" stroke-width="0.3"><path d="
M 430.00 272.00 
C 425.17 274.72 420.50 277.52 416.00 281.00
C 412.43 285.28 406.15 286.98 403.00 292.00
C 438.74 278.79 476.41 271.76 515.00 269.00
C 515.00 261.33 515.00 253.67 515.00 246.00
C 484.17 246.24 455.99 257.36 430.00 272.00 Z"/>
</g>
<g fill="None" fill-opacity="0.0" stroke="#79BDBD" stroke-opacity="1.00" stroke-width="0.3"><path d="
M 643.00 287.00 
C 621.39 273.62 601.85 258.73 577.00 252.00
C 563.56 249.09 550.25 245.70 536.00 246.00
C 536.00 253.67 536.00 261.33 536.00 269.00
C 573.56 271.09 610.68 276.79 645.00 290.00
C 644.48 289.04 643.76 287.83 643.00 287.00 Z"/>
</g>
<g fill="None" fill-opacity="0.0" stroke="#79C1BF" stroke-opacity="1.00" stroke-width="0.3"><path d="
M 704.00 355.00 
C 699.64 346.93 693.38 339.69 688.00 332.00
C 669.78 311.91 647.81 304.79 622.22 296.78 C 596.64 288.76 563.59 284.54 536.00 282.00
C 532.16 295.40 539.12 306.84 550.93 311.07 C 562.73 315.31 572.12 319.52 583.99 322.01 C 595.86 324.50 607.50 327.06 618.92 330.08 C 630.35 333.09 641.07 337.17 651.93 341.07 C 662.78 344.98 672.53 349.97 682.92 354.08 C 693.32 358.18 701.67 363.40 711.00 369.00
C 709.84 363.86 706.51 359.65 704.00 355.00 Z"/>
</g>
<g fill="None" fill-opacity="0.0" stroke="#7AC0BF" stroke-opacity="1.00" stroke-width="0.3"><path d="
M 352.00 346.00 
C 347.83 351.78 344.19 357.69 341.00 364.00
C 339.63 366.70 337.44 368.96 337.00 372.00
C 362.69 355.73 388.28 345.23 417.07 335.07 C 445.87 324.92 479.73 321.92 507.00 307.00
C 508.10 306.58 508.92 306.61 510.00 306.00
C 517.49 300.61 514.46 291.07 515.00 283.00
C 492.95 282.44 469.67 289.43 449.00 293.00 C 428.33 296.57 411.74 304.71 392.69 311.69 C 373.65 318.68 363.44 330.14 352.00 346.00 Z"/>
</g>
<g fill="None" fill-opacity="0.0" stroke="#DFF7F1" stroke-opacity="1.00" stroke-width="0.3"><path d="
M 341.00 364.00 
C 337.45 363.01 335.35 370.46 336.00 374.00
C 349.56 372.22 360.57 357.90 375.00 356.00
C 372.65 350.30 384.40 351.61 388.92 348.92 C 393.45 346.24 404.74 344.73 409.77 342.78 C 414.81 340.83 419.62 336.27 426.92 334.92 C 434.23 333.58 440.92 331.15 447.78 328.78 C 454.64 326.41 463.65 326.15 470.30 324.30 C 476.94 322.45 481.66 316.94 488.98 315.98 C 496.29 315.01 501.03 310.38 507.00 307.00
C 479.73 321.92 445.87 324.92 417.07 335.07 C 388.28 345.23 362.69 355.73 337.00 372.00
C 337.44 368.96 339.63 366.70 341.00 364.00 Z"/>
</g>
<g fill="None" fill-opacity="0.0" stroke="#E0F7F3" stroke-opacity="1.00" stroke-width="0.3"><path d="
M 441.00 347.00 
C 465.89 341.30 490.38 334.67 514.00 325.00
C 513.65 341.74 505.59 356.75 496.00 370.00
C 502.97 363.63 509.32 358.46 510.08 349.08 C 510.84 339.70 520.59 332.60 515.00 323.00
C 505.07 324.29 496.30 332.71 486.00 330.00
C 482.60 336.53 473.11 337.88 465.00 339.00 C 456.89 340.12 449.02 344.56 440.00 344.00
C 439.85 345.18 440.43 346.06 441.00 347.00 Z"/>
</g>
<g fill="None" fill-opacity="0.0" stroke="#79C1C0" stroke-opacity="1.00" stroke-width="0.3"><path d="
M 656.00 448.00 
C 672.77 468.42 682.53 491.67 689.00 517.00
C 695.54 542.61 707.75 565.96 721.70 588.30 C 735.65 610.65 757.23 622.00 777.00 637.00
C 786.56 642.86 796.58 646.23 807.07 649.93 C 817.57 653.62 830.73 656.39 842.02 657.98 C 853.32 659.57 872.01 662.99 875.78 650.78 C 879.55 638.56 884.47 630.66 886.00 618.00
C 873.56 618.43 857.52 619.69 845.33 618.67 C 833.14 617.65 821.63 614.36 810.78 611.22 C 799.93 608.09 790.61 603.03 781.75 597.25 C 772.89 591.47 765.01 587.23 757.75 579.25 C 750.50 571.26 743.05 566.26 737.75 557.25 C 732.46 548.24 726.20 539.61 722.23 529.77 C 718.26 519.93 714.15 509.09 711.08 498.92 C 708.00 488.76 703.58 477.83 700.07 467.93 C 696.57 458.02 689.86 448.89 684.70 440.30 C 679.53 431.72 670.18 425.86 664.75 418.25 C 659.33 410.63 640.77 407.84 643.00 397.00 C 645.23 386.15 662.18 398.59 668.08 403.92 C 673.99 409.25 683.63 417.17 689.25 424.75 C 694.87 432.32 702.53 441.07 706.92 450.08 C 711.30 459.09 715.96 469.85 719.32 479.68 C 722.69 489.51 726.23 501.19 729.98 511.02 C 733.72 520.86 738.21 531.39 743.77 540.23 C 749.33 549.07 753.92 556.81 761.75 564.25 C 769.58 571.68 775.10 578.03 784.25 583.75 C 793.39 589.47 802.02 594.87 813.02 597.98 C 824.03 601.09 835.44 604.73 848.00 605.00 C 860.56 605.26 877.39 605.24 890.00 604.00
C 893.06 597.71 893.37 590.06 896.00 584.00
C 896.75 573.02 902.11 561.54 889.00 563.00 C 875.89 564.46 868.70 561.05 858.02 559.98 C 847.35 558.90 840.73 554.84 831.75 552.25 C 822.76 549.66 816.83 544.88 809.08 540.92 C 801.32 536.97 796.82 532.12 790.08 526.92 C 783.34 521.72 779.01 515.81 773.75 509.25 C 768.50 502.68 763.83 496.08 760.77 488.23 C 757.71 480.38 751.76 473.32 749.99 465.01 C 748.22 456.70 744.21 447.59 741.32 439.68 C 738.44 431.76 735.19 424.08 730.92 417.08 C 726.65 410.09 721.65 404.21 715.25 398.75 C 708.84 393.30 702.47 389.12 695.70 384.30 C 688.93 379.49 681.81 375.05 674.23 371.77 C 666.65 368.49 659.81 362.63 651.67 360.33 C 643.53 358.03 635.09 354.66 627.00 352.00
C 607.78 345.68 587.00 342.17 568.00 336.00
C 557.13 333.62 547.38 327.83 537.00 324.00
C 536.91 344.54 547.26 364.50 561.92 379.08 C 576.58 393.66 594.91 400.12 611.77 411.23 C 628.63 422.34 643.10 432.29 656.00 448.00 Z"/>
</g>
<g fill="None" fill-opacity="0.0" stroke="#7AC1C0" stroke-opacity="1.00" stroke-width="0.3"><path d="
M 441.00 347.00 
C 432.06 349.05 423.29 351.08 415.00 355.00
C 400.71 361.76 385.47 367.60 371.00 375.00
C 351.30 385.07 327.97 399.62 316.31 420.31 C 304.64 440.99 297.11 469.60 288.00 492.00
C 275.53 522.65 242.00 543.82 213.00 554.00
C 199.49 558.74 184.75 562.00 170.00 562.00
C 164.74 562.51 157.97 563.70 152.00 563.00
C 152.77 577.14 156.46 590.56 160.00 604.00
C 172.38 605.20 188.65 605.16 201.00 605.00 C 213.35 604.84 225.38 601.68 236.02 598.02 C 246.67 594.37 256.35 590.25 265.08 584.08 C 273.80 577.91 280.50 572.40 287.75 564.75 C 295.01 557.10 300.07 549.30 305.31 540.31 C 310.54 531.31 315.19 520.73 318.92 510.92 C 322.66 501.12 326.45 489.61 329.78 479.78 C 333.10 469.94 337.35 459.15 342.31 450.31 C 347.26 441.46 353.16 431.57 359.25 424.25 C 365.34 416.94 374.88 408.94 381.08 404.08 C 387.28 399.22 404.14 385.98 406.97 397.03 C 409.81 408.07 390.89 410.53 385.75 417.75 C 380.62 424.98 370.16 430.95 365.25 439.25 C 360.33 447.55 352.65 456.61 349.23 466.23 C 345.81 475.85 341.72 487.28 338.07 497.07 C 334.42 506.86 331.74 518.40 326.70 527.70 C 321.65 536.99 318.03 547.51 312.03 556.03 C 306.03 564.55 300.50 571.42 292.75 578.75 C 285.01 586.09 278.97 591.97 269.92 597.92 C 260.86 603.87 251.19 607.63 240.32 611.32 C 229.45 615.01 217.38 616.68 205.00 618.00 C 192.62 619.32 177.03 617.97 164.00 618.00
C 164.81 630.96 171.30 635.14 173.78 648.22 C 176.25 661.31 191.60 660.06 203.01 658.01 C 214.42 655.96 226.63 655.92 237.22 652.22 C 247.81 648.52 256.61 645.04 267.00 641.00
C 296.40 629.87 321.14 600.38 336.00 574.00
C 354.71 540.78 359.79 500.65 380.00 469.00
C 390.62 444.96 413.54 429.22 434.25 415.25 C 454.95 401.27 481.86 391.92 496.00 370.00
C 505.59 356.75 513.65 341.74 514.00 325.00
C 490.38 334.67 465.89 341.30 441.00 347.00 Z"/>
</g>
<g fill="None" fill-opacity="0.0" stroke="#FCF4EC" stroke-opacity="1.00" stroke-width="0.3"><path d="
M 778.00 335.00 
C 768.99 332.11 766.17 344.89 772.25 349.75 C 778.32 354.61 774.97 360.62 783.33 364.67 C 791.69 368.72 793.45 355.30 787.97 351.03 C 782.50 346.75 785.24 337.33 778.00 335.00 Z"/>
</g>
<g fill="None" fill-opacity="0.0" stroke="#F6DCD1" stroke-opacity="1.00" stroke-width="0.3"><path d="
M 281.00 336.00 
C 266.92 333.51 268.59 343.04 260.92 351.92 C 253.24 360.80 265.48 370.54 271.68 360.68 C 277.88 350.82 283.60 348.07 281.00 336.00
M 277.00 337.00 
C 284.32 339.31 276.43 349.06 274.23 352.23 C 272.03 355.40 267.33 368.01 261.78 363.22 C 256.23 358.43 263.36 353.26 264.31 349.30 C 265.25 345.34 271.69 335.32 277.00 337.00 Z"/>
</g>
<g fill="None" fill-opacity="0.0" stroke="#E0F6F2" stroke-opacity="1.00" stroke-width="0.3"><path d="
M 627.00 352.00 
C 625.82 350.51 623.04 349.76 624.00 347.00
C 606.54 344.09 588.78 340.76 568.00 336.00
C 587.00 342.17 607.78 345.68 627.00 352.00 Z"/>
</g>
<g fill="None" fill-opacity="0.0" stroke="#FBFBF4" stroke-opacity="1.00" stroke-width="0.3"><path d="
M 277.00 337.00 
C 271.69 335.32 265.25 345.34 264.31 349.30 C 263.36 353.26 256.23 358.43 261.78 363.22 C 267.33 368.01 272.03 355.40 274.23 352.23 C 276.43 349.06 284.32 339.31 277.00 337.00 Z"/>
</g>
<g fill="None" fill-opacity="0.0" stroke="#DCF6F0" stroke-opacity="1.00" stroke-width="0.3"><path d="
M 371.00 375.00 
C 385.47 367.60 400.71 361.76 415.00 355.00
C 407.94 356.26 399.56 357.15 392.03 362.03 C 384.49 366.90 378.85 369.99 371.00 375.00 Z"/>
</g>
<g fill="None" fill-opacity="0.0" stroke="#FBC2B5" stroke-opacity="1.00" stroke-width="0.3"><path d="
M 527.00 369.00 
C 519.88 373.69 515.44 383.82 508.75 390.75 C 502.07 397.68 493.59 402.66 486.25 408.25 C 478.90 413.84 469.15 417.86 462.25 423.25 C 455.35 428.64 444.97 434.53 439.08 440.08 C 433.19 445.63 420.75 451.60 420.36 460.31 C 419.96 469.01 432.43 475.92 435.08 484.92 C 437.73 493.92 446.55 498.84 450.69 508.31 C 454.84 517.77 461.85 527.94 467.23 516.23 C 472.61 504.52 478.46 501.87 483.23 492.23 C 488.00 482.59 495.04 477.45 499.70 469.70 C 504.35 461.94 518.33 455.07 527.77 458.23 C 537.21 461.39 545.13 466.54 548.67 476.33 C 552.21 486.11 551.11 502.69 551.00 514.00 C 550.89 525.31 546.37 543.31 561.00 541.00 C 575.63 538.69 587.36 543.34 599.32 539.32 C 611.28 535.30 615.57 531.70 623.25 523.25 C 630.92 514.80 631.15 505.16 634.00 495.00 C 636.86 484.84 637.53 469.65 631.92 461.08 C 626.31 452.51 620.49 447.31 613.08 440.92 C 605.66 434.54 597.31 430.33 589.23 424.77 C 581.15 419.21 572.88 415.66 565.25 409.75 C 557.62 403.84 550.34 398.35 543.25 391.75 C 536.15 385.15 530.68 377.74 527.00 369.00 Z"/>
</g>
<g fill="None" fill-opacity="0.0" stroke="#FCF2EB" stroke-opacity="1.00" stroke-width="0.3"><path d="
M 255.00 381.00 
C 244.57 378.72 238.19 400.51 247.00 404.00 C 255.80 407.48 263.03 382.76 255.00 381.00 Z"/>
</g>
<g fill="None" fill-opacity="0.0" stroke="#FCF8EF" stroke-opacity="1.00" stroke-width="0.3"><path d="
M 800.00 382.00 
C 790.77 378.20 790.89 400.54 799.32 402.66 C 807.75 404.79 806.94 384.86 800.00 382.00 Z"/>
</g>
<g fill="None" fill-opacity="0.0" stroke="#CBF7F3" stroke-opacity="1.00" stroke-width="0.3"><path d="
M 170.00 562.00 
C 162.55 562.93 150.96 558.20 149.93 566.92 C 148.91 575.64 152.60 580.02 154.01 587.99 C 155.42 595.97 159.19 600.98 160.00 609.00 C 160.81 617.02 163.73 623.84 162.00 632.00
C 165.28 630.70 168.65 641.12 169.93 642.92 C 171.21 644.72 170.11 652.01 172.75 654.81 C 175.38 657.62 178.34 662.46 183.33 661.67 C 188.31 660.87 197.98 661.77 202.93 660.93 C 207.88 660.08 218.38 661.07 216.00 658.00
C 225.17 656.42 236.01 654.64 244.93 652.93 C 253.84 651.21 258.87 641.76 268.00 644.00
C 267.97 642.86 266.47 642.28 267.00 641.00
C 256.61 645.04 247.81 648.52 237.22 652.22 C 226.63 655.92 214.42 655.96 203.01 658.01 C 191.60 660.06 176.25 661.31 173.78 648.22 C 171.30 635.14 164.81 630.96 164.00 618.00
C 177.03 617.97 192.62 619.32 205.00 618.00 C 217.38 616.68 229.45 615.01 240.32 611.32 C 251.19 607.63 260.86 603.87 269.92 597.92 C 278.97 591.97 285.01 586.09 292.75 578.75 C 300.50 571.42 306.03 564.55 312.03 556.03 C 318.03 547.51 321.65 536.99 326.70 527.70 C 331.74 518.40 334.42 506.86 338.07 497.07 C 341.72 487.28 345.81 475.85 349.23 466.23 C 352.65 456.61 360.33 447.55 365.25 439.25 C 370.16 430.95 380.62 424.98 385.75 417.75 C 390.89 410.53 409.81 408.07 406.97 397.03 C 404.14 385.98 387.28 399.22 381.08 404.08 C 374.88 408.94 365.34 416.94 359.25 424.25 C 353.16 431.57 347.26 441.46 342.31 450.31 C 337.35 459.15 333.10 469.94 329.78 479.78 C 326.45 489.61 322.66 501.12 318.92 510.92 C 315.19 520.73 310.54 531.31 305.31 540.31 C 300.07 549.30 295.01 557.10 287.75 564.75 C 280.50 572.40 273.80 577.91 265.08 584.08 C 256.35 590.25 246.67 594.37 236.02 598.02 C 225.38 601.68 213.35 604.84 201.00 605.00 C 188.65 605.16 172.38 605.20 160.00 604.00
C 156.46 590.56 152.77 577.14 152.00 563.00
C 157.97 563.70 164.74 562.51 170.00 562.00 Z"/>
</g>
<g fill="None" fill-opacity="0.0" stroke="#CDF7F5" stroke-opacity="1.00" stroke-width="0.3"><path d="
M 777.00 637.00 
C 785.95 643.79 795.38 650.11 806.99 653.01 C 818.60 655.91 832.98 657.99 844.00 660.00 C 855.01 662.02 872.35 665.93 877.07 654.07 C 881.80 642.22 885.59 632.28 889.22 620.22 C 892.85 608.17 895.10 597.19 896.00 584.00
C 893.37 590.06 893.06 597.71 890.00 604.00
C 877.39 605.24 860.56 605.26 848.00 605.00 C 835.44 604.73 824.03 601.09 813.02 597.98 C 802.02 594.87 793.39 589.47 784.25 583.75 C 775.10 578.03 769.58 571.68 761.75 564.25 C 753.92 556.81 749.33 549.07 743.77 540.23 C 738.21 531.39 733.72 520.86 729.98 511.02 C 726.23 501.19 722.69 489.51 719.32 479.68 C 715.96 469.85 711.30 459.09 706.92 450.08 C 702.53 441.07 694.87 432.32 689.25 424.75 C 683.63 417.17 673.99 409.25 668.08 403.92 C 662.18 398.59 645.23 386.15 643.00 397.00 C 640.77 407.84 659.33 410.63 664.75 418.25 C 670.18 425.86 679.53 431.72 684.70 440.30 C 689.86 448.89 696.57 458.02 700.07 467.93 C 703.58 477.83 708.00 488.76 711.08 498.92 C 714.15 509.09 718.26 519.93 722.23 529.77 C 726.20 539.61 732.46 548.24 737.75 557.25 C 743.05 566.26 750.50 571.26 757.75 579.25 C 765.01 587.23 772.89 591.47 781.75 597.25 C 790.61 603.03 799.93 608.09 810.78 611.22 C 821.63 614.36 833.14 617.65 845.33 618.67 C 857.52 619.69 873.56 618.43 886.00 618.00
C 884.47 630.66 879.55 638.56 875.78 650.78 C 872.01 662.99 853.32 659.57 842.02 657.98 C 830.73 656.39 817.57 653.62 807.07 649.93 C 796.58 646.23 786.56 642.86 777.00 637.00 Z"/>
</g>
<g fill="None" fill-opacity="0.0" stroke="#FCF7EF" stroke-opacity="1.00" stroke-width="0.3"><path d="
M 826.00 442.00 
C 825.14 436.26 826.16 423.49 818.01 424.01 C 809.85 424.53 811.94 436.26 811.00 442.00
C 803.01 440.73 796.66 445.23 790.00 448.00
C 791.78 457.00 803.76 456.68 811.00 458.00
C 811.36 462.98 813.77 478.44 820.75 476.75 C 827.72 475.05 822.61 456.44 829.00 457.00 C 835.39 457.56 849.66 455.50 847.75 448.25 C 845.85 441.00 830.78 443.50 826.00 442.00 Z"/>
</g>
<g fill="None" fill-opacity="0.0" stroke="#FCECE5" stroke-opacity="1.00" stroke-width="0.3"><path d="
M 150.00 480.00 
C 153.41 462.31 156.20 443.02 160.00 425.00
C 156.69 427.36 158.10 440.73 154.00 437.00
C 154.09 451.41 147.38 466.43 150.00 480.00 Z"/>
</g>
<g fill="None" fill-opacity="0.0" stroke="#DDF5F0" stroke-opacity="1.00" stroke-width="0.3"><path d="
M 689.00 517.00 
C 682.53 491.67 672.77 468.42 656.00 448.00
C 656.05 457.07 670.18 463.77 666.00 472.00
C 672.67 470.61 673.13 478.09 675.01 482.99 C 676.89 487.89 680.93 493.70 682.68 499.32 C 684.43 504.94 687.07 511.64 689.00 517.00 Z"/>
</g>
<g fill="None" fill-opacity="0.0" stroke="#DDF6F1" stroke-opacity="1.00" stroke-width="0.3"><path d="
M 336.00 574.00 
C 343.32 566.33 349.34 554.12 353.08 542.08 C 356.83 530.05 364.40 518.79 366.69 505.69 C 368.99 492.60 374.66 481.08 380.00 469.00
C 359.79 500.65 354.71 540.78 336.00 574.00 Z"/>
</g>
<g fill="None" fill-opacity="0.0" stroke="#DDF6F0" stroke-opacity="1.00" stroke-width="0.3"><path d="
M 213.00 554.00 
C 242.00 543.82 275.53 522.65 288.00 492.00
C 284.08 496.50 281.29 501.55 277.75 506.75 C 274.21 511.96 269.79 514.28 266.10 517.10 C 262.41 519.92 258.30 524.63 254.75 528.75 C 251.19 532.86 242.51 535.23 243.00 539.00
C 240.73 539.57 234.04 539.32 237.00 543.00
C 234.86 544.11 225.62 543.06 230.00 546.00
C 224.08 548.12 218.20 550.95 213.00 554.00 Z"/>
</g>
<g fill="None" fill-opacity="0.0" stroke="#FAE9DF" stroke-opacity="1.00" stroke-width="0.3"><path d="
M 865.00 537.00 
C 876.03 540.48 888.72 541.83 901.00 542.00
C 903.09 539.30 906.19 524.65 902.00 531.00
C 902.09 518.00 904.03 504.86 901.00 493.00
C 901.53 502.76 899.91 512.23 901.00 522.00 C 902.09 531.77 901.61 543.08 890.02 539.98 C 878.44 536.88 875.89 539.03 865.00 537.00 Z"/>
</g>
<g fill="None" fill-opacity="0.0" stroke="#D6F0E9" stroke-opacity="1.00" stroke-width="0.3"><path d="
M 448.00 569.00 
C 452.74 576.35 459.09 591.82 465.75 581.75 C 472.42 571.69 476.59 566.87 482.75 557.75 C 488.91 548.64 494.82 542.28 500.00 533.00
C 492.55 538.41 488.93 546.83 483.75 553.74 C 478.57 560.65 471.78 564.85 469.00 575.00
C 467.53 573.75 469.37 570.56 466.00 573.00
C 468.16 576.81 462.11 577.50 462.00 581.00
C 455.82 579.11 456.22 575.91 455.00 569.00
C 453.89 570.70 449.95 570.39 448.00 569.00 Z"/>
</g>
<g fill="None" fill-opacity="0.0" stroke="#7AC2C1" stroke-opacity="1.00" stroke-width="0.3"><path d="
M 448.00 569.00 
C 441.40 559.85 435.90 549.69 429.00 541.00
C 427.02 569.14 431.94 603.00 428.32 630.32 C 424.70 657.64 380.78 655.90 379.78 628.22 C 378.78 600.54 379.74 567.60 378.00 540.00
C 375.54 545.72 373.23 551.25 371.00 557.00
C 353.42 602.35 315.42 648.93 268.00 666.00
C 242.98 676.96 215.68 680.63 188.00 682.00
C 197.34 699.38 207.51 717.11 221.00 732.00
C 229.29 733.87 241.50 729.24 250.02 729.02 C 258.54 728.81 268.77 724.97 276.69 722.69 C 284.62 720.41 292.38 716.69 298.75 711.75 C 305.12 706.82 311.13 702.60 316.25 696.25 C 321.36 689.89 327.01 685.08 332.00 679.00
C 337.36 670.16 344.84 662.15 350.00 653.00
C 354.23 672.54 342.83 691.37 329.00 705.00
C 343.09 700.81 357.51 697.04 373.00 698.00
C 363.93 718.66 336.84 725.30 316.00 722.00
C 302.51 720.03 291.26 733.82 276.99 735.99 C 262.73 738.16 246.23 745.07 231.00 745.00
C 249.47 772.77 276.90 796.74 303.00 817.00
C 303.28 817.23 303.91 817.65 304.00 818.00
C 319.85 828.07 335.79 839.16 352.00 848.00
C 370.65 853.66 385.86 864.60 404.93 870.07 C 423.99 875.55 444.30 881.13 464.00 885.00
C 510.77 894.19 567.27 889.70 612.02 880.02 C 656.78 870.35 688.70 853.21 728.00 832.00
C 764.71 812.19 793.48 777.23 821.00 746.00
C 812.57 742.12 800.31 743.70 791.00 742.00 C 781.69 740.30 772.19 738.02 763.33 735.67 C 754.46 733.33 747.68 727.98 738.98 726.03 C 730.27 724.07 725.27 715.21 718.00 712.00
C 687.86 712.90 657.42 686.21 656.00 656.00
C 671.04 663.18 681.53 680.54 697.00 687.00
C 691.91 674.40 687.35 660.21 691.00 646.00
C 704.21 659.56 713.88 676.54 720.00 694.00
C 727.27 711.64 748.50 715.26 765.67 722.33 C 782.85 729.40 812.02 731.35 832.00 731.00
C 835.17 725.95 838.88 720.35 843.00 716.00
C 849.11 704.59 857.59 694.01 862.00 682.00
C 817.69 681.97 772.57 666.54 738.75 639.25 C 704.93 611.96 686.81 578.60 672.00 540.00
C 660.96 559.43 651.90 575.83 630.23 587.23 C 608.56 598.63 576.43 596.21 551.00 596.00
C 552.50 609.85 549.00 626.43 551.00 640.00 C 553.00 653.57 546.62 669.66 552.00 682.00
C 560.93 677.76 576.40 682.78 586.00 681.00 C 595.60 679.22 604.60 684.45 610.75 691.25 C 616.90 698.04 616.87 710.41 611.23 718.23 C 605.59 726.05 596.16 728.84 586.00 728.00 C 575.84 727.16 561.54 728.63 551.00 728.00
C 552.92 750.03 548.44 776.40 551.00 798.00 C 553.56 819.60 542.60 841.26 519.00 835.00
C 498.61 829.13 500.51 808.68 501.00 790.00 C 501.49 771.32 500.63 747.18 501.00 728.00
C 491.07 728.76 477.57 726.98 468.00 728.00 C 458.43 729.02 447.94 727.16 442.25 720.75 C 436.56 714.34 433.46 702.04 438.77 695.77 C 444.08 689.49 445.76 682.67 456.00 682.00 C 466.24 681.33 475.42 680.28 488.00 682.00 C 500.58 683.72 502.73 674.16 501.00 662.00 C 499.27 649.84 501.85 640.42 501.00 629.00 C 500.15 617.58 501.48 608.03 501.00 597.00 C 500.52 585.97 501.44 574.78 501.00 564.00 C 500.56 553.22 502.16 542.88 500.00 533.00
C 494.82 542.28 488.91 548.64 482.75 557.75 C 476.59 566.87 472.42 571.69 465.75 581.75 C 459.09 591.82 452.74 576.35 448.00 569.00
M 345.00 760.00 
C 352.21 761.94 355.57 771.96 363.25 774.75 C 370.92 777.55 375.38 785.61 384.08 787.92 C 392.77 790.24 397.23 797.48 407.69 798.31 C 418.16 799.13 420.46 814.83 409.00 813.00 C 397.54 811.17 395.10 806.12 385.77 803.23 C 376.44 800.33 371.98 794.79 363.77 791.23 C 355.57 787.67 351.91 780.56 343.92 777.08 C 335.92 773.61 331.95 756.50 345.00 760.00
M 673.00 807.00 
C 668.18 808.76 663.58 810.98 658.00 810.00
C 657.90 817.96 655.25 825.03 652.00 832.00
C 646.16 827.76 643.76 817.81 644.00 810.00
C 637.75 810.79 633.67 808.68 627.93 807.07 C 622.19 805.46 622.79 799.98 628.23 798.23 C 633.68 796.48 638.12 794.85 644.00 795.00
C 644.17 792.28 643.39 789.33 645.00 787.00
C 645.83 781.77 645.68 773.65 652.00 772.00
C 655.91 778.64 659.02 785.80 658.00 794.00
C 665.03 790.58 672.11 786.44 678.25 781.25 C 684.39 776.06 693.74 775.44 698.08 767.08 C 702.43 758.73 718.29 760.01 714.67 769.67 C 711.05 779.33 701.39 778.04 696.25 785.25 C 691.12 792.46 682.11 793.36 676.00 799.00
C 676.81 801.04 679.27 801.97 680.00 804.00
C 677.93 805.70 675.59 806.55 673.00 807.00 Z"/>
</g>
<g fill="None" fill-opacity="0.0" stroke="#DAF2EB" stroke-opacity="1.00" stroke-width="0.3"><path d="
M 268.00 666.00 
C 315.42 648.93 353.42 602.35 371.00 557.00
C 368.43 555.17 368.07 560.33 367.00 562.00
C 365.13 559.76 363.04 560.90 361.00 560.00
C 360.30 564.68 362.17 563.10 365.00 562.00
C 361.24 574.09 351.80 587.85 344.78 599.78 C 337.75 611.70 326.20 622.27 316.70 631.70 C 307.19 641.12 295.86 653.61 282.00 656.00
C 279.95 660.67 272.61 663.51 268.00 666.00 Z"/>
</g>
<g fill="None" fill-opacity="0.0" stroke="#F3FAF4" stroke-opacity="1.00" stroke-width="0.3"><path d="
M 718.00 712.00 
C 721.17 711.91 724.13 711.23 727.00 710.00
C 726.66 704.38 720.86 700.21 720.00 694.00
C 713.88 676.54 704.21 659.56 691.00 646.00
C 687.35 660.21 691.91 674.40 697.00 687.00
C 681.53 680.54 671.04 663.18 656.00 656.00
C 657.42 686.21 687.86 712.90 718.00 712.00 Z"/>
</g>
<g fill="None" fill-opacity="0.0" stroke="#F2FAF3" stroke-opacity="1.00" stroke-width="0.3"><path d="
M 332.00 679.00 
C 324.27 691.75 311.94 701.68 301.30 711.30 C 290.67 720.93 311.02 720.55 316.00 722.00
C 336.84 725.30 363.93 718.66 373.00 698.00
C 357.51 697.04 343.09 700.81 329.00 705.00
C 342.83 691.37 354.23 672.54 350.00 653.00
C 344.84 662.15 337.36 670.16 332.00 679.00 Z"/>
</g>
<g fill="None" fill-opacity="0.0" stroke="#D1F7F3" stroke-opacity="1.00" stroke-width="0.3"><path d="
M 221.00 732.00 
C 225.26 737.77 227.59 749.25 233.08 754.92 C 238.58 760.59 243.79 765.20 248.70 772.30 C 253.61 779.41 262.36 782.00 265.00 790.00
C 277.98 793.16 288.63 817.82 303.00 817.00
C 276.90 796.74 249.47 772.77 231.00 745.00
C 246.23 745.07 262.73 738.16 276.99 735.99 C 291.26 733.82 302.51 720.03 316.00 722.00
C 311.02 720.55 290.67 720.93 301.30 711.30 C 311.94 701.68 324.27 691.75 332.00 679.00
C 327.01 685.08 321.36 689.89 316.25 696.25 C 311.13 702.60 305.12 706.82 298.75 711.75 C 292.38 716.69 284.62 720.41 276.69 722.69 C 268.77 724.97 258.54 728.81 250.02 729.02 C 241.50 729.24 229.29 733.87 221.00 732.00 Z"/>
</g>
<g fill="None" fill-opacity="0.0" stroke="#E0F8F3" stroke-opacity="1.00" stroke-width="0.3"><path d="
M 552.00 682.00 
C 557.44 685.01 571.36 682.92 581.00 683.00 C 590.65 683.08 599.89 683.95 608.00 689.00
C 609.10 693.65 607.96 698.34 613.00 698.00
C 612.43 708.18 611.08 722.07 599.07 724.07 C 587.07 726.08 576.23 730.58 562.02 726.98 C 547.82 723.37 547.31 734.85 549.00 748.00 C 550.69 761.16 550.09 773.05 548.00 785.00 C 545.91 796.95 549.68 812.04 547.00 824.00
C 543.81 825.52 542.28 830.70 536.68 832.68 C 531.08 834.66 525.49 835.81 519.00 835.00
C 542.60 841.26 553.56 819.60 551.00 798.00 C 548.44 776.40 552.92 750.03 551.00 728.00
C 561.54 728.63 575.84 727.16 586.00 728.00 C 596.16 728.84 605.59 726.05 611.23 718.23 C 616.87 710.41 616.90 698.04 610.75 691.25 C 604.60 684.45 595.60 679.22 586.00 681.00 C 576.40 682.78 560.93 677.76 552.00 682.00 Z"/>
</g>
<g fill="None" fill-opacity="0.0" stroke="#CEF7F5" stroke-opacity="1.00" stroke-width="0.3"><path d="
M 718.00 712.00 
C 725.27 715.21 730.27 724.07 738.98 726.03 C 747.68 727.98 754.46 733.33 763.33 735.67 C 772.19 738.02 781.69 740.30 791.00 742.00 C 800.31 743.70 812.57 742.12 821.00 746.00
C 828.23 737.80 836.66 726.68 843.00 716.00
C 838.88 720.35 835.17 725.95 832.00 731.00
C 812.02 731.35 782.85 729.40 765.67 722.33 C 748.50 715.26 727.27 711.64 720.00 694.00
C 720.86 700.21 726.66 704.38 727.00 710.00
C 724.13 711.23 721.17 711.91 718.00 712.00 Z"/>
</g>
<g fill="None" fill-opacity="0.0" stroke="#CDF6F5" stroke-opacity="1.00" stroke-width="0.3"><path d="
M 345.00 760.00 
C 331.95 756.50 335.92 773.61 343.92 777.08 C 351.91 780.56 355.57 787.67 363.77 791.23 C 371.98 794.79 376.44 800.33 385.77 803.23 C 395.10 806.12 397.54 811.17 409.00 813.00 C 420.46 814.83 418.16 799.13 407.69 798.31 C 397.23 797.48 392.77 790.24 384.08 787.92 C 375.38 785.61 370.92 777.55 363.25 774.75 C 355.57 771.96 352.21 761.94 345.00 760.00 Z"/>
</g>
<g fill="None" fill-opacity="0.0" stroke="#CDF7F4" stroke-opacity="1.00" stroke-width="0.3"><path d="
M 645.00 787.00 
C 646.32 783.26 647.66 775.27 652.00 773.00
C 656.47 780.54 655.19 789.13 657.00 797.00
C 663.32 794.38 669.53 798.21 676.00 800.00
C 675.48 802.38 675.04 804.81 673.00 807.00
C 675.59 806.55 677.93 805.70 680.00 804.00
C 679.27 801.97 676.81 801.04 676.00 799.00
C 682.11 793.36 691.12 792.46 696.25 785.25 C 701.39 778.04 711.05 779.33 714.67 769.67 C 718.29 760.01 702.43 758.73 698.08 767.08 C 693.74 775.44 684.39 776.06 678.25 781.25 C 672.11 786.44 665.03 790.58 658.00 794.00
C 659.02 785.80 655.91 778.64 652.00 772.00
C 645.68 773.65 645.83 781.77 645.00 787.00 Z"/>
</g>
<g fill="None" fill-opacity="0.0" stroke="#F4FBF5" stroke-opacity="1.00" stroke-width="0.3"><path d="
M 645.00 787.00 
C 643.39 789.33 644.17 792.28 644.00 795.00
C 638.12 794.85 633.68 796.48 628.23 798.23 C 622.79 799.98 622.19 805.46 627.93 807.07 C 633.67 808.68 637.75 810.79 644.00 810.00
C 643.76 817.81 646.16 827.76 652.00 832.00
C 655.25 825.03 657.90 817.96 658.00 810.00
C 663.58 810.98 668.18 808.76 673.00 807.00
C 675.04 804.81 675.48 802.38 676.00 800.00
C 669.53 798.21 663.32 794.38 657.00 797.00
C 655.19 789.13 656.47 780.54 652.00 773.00
C 647.66 775.27 646.32 783.26 645.00 787.00 Z"/>
</g>
<g fill="None" fill-opacity="0.0" stroke="#DDF5F2" stroke-opacity="1.00" stroke-width="0.3"><path d="
M 352.00 848.00 
C 335.79 839.16 319.85 828.07 304.00 818.00
C 305.71 824.99 315.30 825.23 318.25 830.41 C 321.19 835.59 329.56 836.21 333.92 839.08 C 338.28 841.96 346.62 846.37 352.00 848.00 Z"/>
</g>
<g fill="None" fill-opacity="0.0" stroke="#E0F8F3" stroke-opacity="1.00" stroke-width="0.3"><path d="
M 464.00 885.00 
C 477.45 891.56 494.76 891.20 511.00 892.00 C 527.24 892.80 549.10 892.12 564.99 889.99 C 580.89 887.87 598.07 886.68 612.92 883.92 C 627.78 881.17 639.78 872.87 653.00 870.00 C 666.21 867.12 679.86 859.48 691.78 854.78 C 703.69 850.07 710.35 843.17 723.00 839.00
C 721.17 836.42 725.82 833.67 728.00 832.00
C 688.70 853.21 656.78 870.35 612.02 880.02 C 567.27 889.70 510.77 894.19 464.00 885.00 Z"/>
</g>
<g fill="#FCFDF6" fill-opacity="1.00" stroke="None">
<path d="
M 0.00 1024.00 
L 1024.00 1024.00
L 1024.00 0.00
L 0.00 0.00
L 0.00 1024.00
M 594.00 140.00 
C 633.58 151.85 677.63 163.87 712.70 186.30 C 747.76 208.73 776.01 228.09 803.77 260.23 C 831.53 292.37 850.98 321.29 868.92 360.08 C 886.86 398.86 898.57 448.34 901.00 493.00
C 904.03 504.86 902.09 518.00 902.00 531.00
C 906.19 524.65 903.09 539.30 901.00 542.00
C 888.72 541.83 876.03 540.48 865.00 537.00
C 823.95 529.36 788.02 500.15 773.23 460.77 C 758.44 421.39 749.27 377.08 725.25 341.75 C 701.23 306.43 677.88 280.91 642.32 255.68 C 606.77 230.44 551.91 219.73 507.00 224.00 C 462.09 228.27 420.42 243.65 386.92 271.92 C 353.41 300.18 334.47 327.45 312.75 364.75 C 291.02 402.04 287.44 447.85 264.75 485.75 C 242.05 523.64 192.47 542.11 150.00 540.00
C 147.45 520.28 149.84 499.86 150.00 480.00
C 147.38 466.43 154.09 451.41 154.00 437.00
C 158.10 440.73 156.69 427.36 160.00 425.00
C 172.82 391.12 181.31 350.40 202.25 320.25 C 223.20 290.11 240.13 263.88 267.75 238.75 C 295.37 213.63 320.98 193.03 354.03 178.03 C 387.08 163.03 425.54 142.97 463.00 140.00
C 482.06 134.45 500.93 133.20 523.00 134.00 C 545.07 134.80 562.30 132.43 584.00 136.00
C 577.17 139.41 591.99 137.35 594.00 140.00
M 510.00 306.00 
C 508.92 306.61 508.10 306.58 507.00 307.00
C 501.03 310.38 496.29 315.01 488.98 315.98 C 481.66 316.94 476.94 322.45 470.30 324.30 C 463.65 326.15 454.64 326.41 447.78 328.78 C 440.92 331.15 434.23 333.58 426.92 334.92 C 419.62 336.27 414.81 340.83 409.77 342.78 C 404.74 344.73 393.45 346.24 388.92 348.92 C 384.40 351.61 372.65 350.30 375.00 356.00
C 360.57 357.90 349.56 372.22 336.00 374.00
C 335.35 370.46 337.45 363.01 341.00 364.00
C 344.19 357.69 347.83 351.78 352.00 346.00
C 355.89 336.34 363.79 329.75 368.00 320.00
C 376.75 316.45 382.39 306.88 389.75 300.75 C 397.11 294.63 406.33 288.20 411.00 281.00
C 412.62 282.83 414.14 280.91 416.00 281.00
C 420.50 277.52 425.17 274.72 430.00 272.00
C 433.66 269.22 436.77 265.05 442.00 265.00
C 441.43 261.78 438.20 261.86 440.00 258.00
C 442.24 260.15 445.21 260.17 448.00 261.00
C 456.29 252.94 469.12 253.10 480.23 248.23 C 491.33 243.36 506.84 245.28 517.00 242.00
C 518.26 252.61 516.44 264.36 516.00 275.00 C 515.56 285.64 521.57 299.86 510.00 306.00
M 577.00 252.00 
C 601.85 258.73 621.39 273.62 643.00 287.00
C 652.49 292.87 658.87 301.06 666.75 308.25 C 674.63 315.44 682.08 323.54 688.00 332.00
C 693.38 339.69 699.64 346.93 704.00 355.00
C 707.94 360.57 712.69 364.96 714.00 372.00
C 707.66 366.08 700.65 368.16 694.25 363.75 C 687.86 359.33 681.02 355.81 673.99 353.01 C 666.96 350.21 659.39 346.28 651.99 344.01 C 644.60 341.74 637.87 337.58 629.78 335.22 C 621.68 332.86 612.36 332.84 604.99 329.01 C 597.63 325.17 586.34 327.19 578.98 324.02 C 571.62 320.86 562.70 319.79 555.75 316.25 C 548.81 312.70 540.83 311.47 536.75 304.25 C 532.66 297.03 533.40 287.73 533.01 278.99 C 532.61 270.25 536.28 260.85 534.00 251.00 C 531.72 241.15 546.91 244.14 554.02 244.02 C 561.13 243.91 572.46 247.67 577.00 252.00
M 496.00 370.00 
C 481.86 391.92 454.95 401.27 434.25 415.25 C 413.54 429.22 390.62 444.96 380.00 469.00
C 374.66 481.08 368.99 492.60 366.69 505.69 C 364.40 518.79 356.83 530.05 353.08 542.08 C 349.34 554.12 343.32 566.33 336.00 574.00
C 321.14 600.38 296.40 629.87 267.00 641.00
C 266.47 642.28 267.97 642.86 268.00 644.00
C 258.87 641.76 253.84 651.21 244.93 652.93 C 236.01 654.64 225.17 656.42 216.00 658.00
C 218.38 661.07 207.88 660.08 202.93 660.93 C 197.98 661.77 188.31 660.87 183.33 661.67 C 178.34 662.46 175.38 657.62 172.75 654.81 C 170.11 652.01 171.21 644.72 169.93 642.92 C 168.65 641.12 165.28 630.70 162.00 632.00
C 163.73 623.84 160.81 617.02 160.00 609.00 C 159.19 600.98 155.42 595.97 154.01 587.99 C 152.60 580.02 148.91 575.64 149.93 566.92 C 150.96 558.20 162.55 562.93 170.00 562.00
C 184.75 562.00 199.49 558.74 213.00 554.00
C 218.20 550.95 224.08 548.12 230.00 546.00
C 225.62 543.06 234.86 544.11 237.00 543.00
C 234.04 539.32 240.73 539.57 243.00 539.00
C 242.51 535.23 251.19 532.86 254.75 528.75 C 258.30 524.63 262.41 519.92 266.10 517.10 C 269.79 514.28 274.21 511.96 277.75 506.75 C 281.29 501.55 284.08 496.50 288.00 492.00
C 297.11 469.60 304.64 440.99 316.31 420.31 C 327.97 399.62 351.30 385.07 371.00 375.00
C 378.85 369.99 384.49 366.90 392.03 362.03 C 399.56 357.15 407.94 356.26 415.00 355.00
C 423.29 351.08 432.06 349.05 441.00 347.00
C 440.43 346.06 439.85 345.18 440.00 344.00
C 449.02 344.56 456.89 340.12 465.00 339.00 C 473.11 337.88 482.60 336.53 486.00 330.00
C 496.30 332.71 505.07 324.29 515.00 323.00
C 520.59 332.60 510.84 339.70 510.08 349.08 C 509.32 358.46 502.97 363.63 496.00 370.00
M 568.00 336.00 
C 588.78 340.76 606.54 344.09 624.00 347.00
C 623.04 349.76 625.82 350.51 627.00 352.00
C 635.09 354.66 643.53 358.03 651.67 360.33 C 659.81 362.63 666.65 368.49 674.23 371.77 C 681.81 375.05 688.93 379.49 695.70 384.30 C 702.47 389.12 708.84 393.30 715.25 398.75 C 721.65 404.21 726.65 410.09 730.92 417.08 C 735.19 424.08 738.44 431.76 741.32 439.68 C 744.21 447.59 748.22 456.70 749.99 465.01 C 751.76 473.32 757.71 480.38 760.77 488.23 C 763.83 496.08 768.50 502.68 773.75 509.25 C 779.01 515.81 783.34 521.72 790.08 526.92 C 796.82 532.12 801.32 536.97 809.08 540.92 C 816.83 544.88 822.76 549.66 831.75 552.25 C 840.73 554.84 847.35 558.90 858.02 559.98 C 868.70 561.05 875.89 564.46 889.00 563.00 C 902.11 561.54 896.75 573.02 896.01 583.01
C 895.10 597.19 892.85 608.17 889.22 620.22 C 885.59 632.28 881.80 642.22 877.07 654.07 C 872.35 665.93 855.01 662.02 844.00 660.00 C 832.98 657.99 818.60 655.91 806.99 653.01 C 795.38 650.11 785.95 643.79 777.00 637.00
C 757.23 622.00 735.65 610.65 721.70 588.30 C 707.75 565.96 695.54 542.61 689.00 517.00
C 687.07 511.64 684.43 504.94 682.68 499.32 C 680.93 493.70 676.89 487.89 675.01 482.99 C 673.13 478.09 672.67 470.61 666.00 472.00
C 670.18 463.77 656.05 457.07 656.00 448.00
C 643.10 432.29 628.63 422.34 611.77 411.23 C 594.91 400.12 576.58 393.66 561.92 379.08 C 547.26 364.50 536.91 344.54 537.00 324.00
C 547.38 327.83 557.13 333.62 568.00 336.00
M 527.00 369.00 
C 530.68 377.74 536.15 385.15 543.25 391.75 C 550.34 398.35 557.62 403.84 565.25 409.75 C 572.88 415.66 581.15 419.21 589.23 424.77 C 597.31 430.33 605.66 434.54 613.08 440.92 C 620.49 447.31 626.31 452.51 631.92 461.08 C 637.53 469.65 636.86 484.84 634.00 495.00 C 631.15 505.16 630.92 514.80 623.25 523.25 C 615.57 531.70 611.28 535.30 599.32 539.32 C 587.36 543.34 575.63 538.69 561.00 541.00 C 546.37 543.31 550.89 525.31 551.00 514.00 C 551.11 502.69 552.21 486.11 548.67 476.33 C 545.13 466.54 537.21 461.39 527.77 458.23 C 518.33 455.07 504.35 461.94 499.70 469.70 C 495.04 477.45 488.00 482.59 483.23 492.23 C 478.46 501.87 472.61 504.52 467.23 516.23 C 461.85 527.94 454.84 517.77 450.69 508.31 C 446.55 498.84 437.73 493.92 435.08 484.92 C 432.43 475.92 419.96 469.01 420.36 460.31 C 420.75 451.60 433.19 445.63 439.08 440.08 C 444.97 434.53 455.35 428.64 462.25 423.25 C 469.15 417.86 478.90 413.84 486.25 408.25 C 493.59 402.66 502.07 397.68 508.75 390.75 C 515.44 383.82 519.88 373.69 527.00 369.00
M 519.00 835.00 
C 525.49 835.81 531.08 834.66 536.68 832.68 C 542.28 830.70 543.81 825.52 547.00 824.00
C 549.68 812.04 545.91 796.95 548.00 785.00 C 550.09 773.05 550.69 761.16 549.00 748.00 C 547.31 734.85 547.82 723.37 562.02 726.98 C 576.23 730.58 587.07 726.08 599.07 724.07 C 611.08 722.07 612.43 708.18 613.00 698.00
C 607.96 698.34 609.10 693.65 608.00 689.00
C 599.89 683.95 590.65 683.08 581.00 683.00 C 571.36 682.92 557.44 685.01 552.00 682.00
C 546.62 669.66 553.00 653.57 551.00 640.00 C 549.00 626.43 552.50 609.85 551.00 596.00
C 576.43 596.21 608.56 598.63 630.23 587.23 C 651.90 575.83 660.96 559.43 672.00 540.00
C 686.81 578.60 704.93 611.96 738.75 639.25 C 772.57 666.54 817.69 681.97 862.00 682.00
C 857.59 694.01 849.11 704.59 843.00 716.00
C 836.66 726.68 828.23 737.80 821.00 746.00
C 793.48 777.23 764.71 812.19 728.00 832.00
C 725.82 833.67 721.17 836.42 723.00 839.00
C 710.35 843.17 703.69 850.07 691.78 854.78 C 679.86 859.48 666.21 867.12 653.00 870.00 C 639.78 872.87 627.78 881.17 612.92 883.92 C 598.07 886.68 580.89 887.87 564.99 889.99 C 549.10 892.12 527.24 892.80 511.00 892.00 C 494.76 891.20 477.45 891.56 464.00 885.00
C 444.30 881.13 423.99 875.55 404.93 870.07 C 385.86 864.60 370.65 853.66 352.00 848.00
C 346.62 846.37 338.28 841.96 333.92 839.08 C 329.56 836.21 321.19 835.59 318.25 830.41 C 315.30 825.23 305.71 824.99 304.00 818.00
C 303.91 817.65 303.28 817.23 303.00 817.00
C 288.63 817.82 277.98 793.16 265.00 790.00
C 262.36 782.00 253.61 779.41 248.70 772.30 C 243.79 765.20 238.58 760.59 233.08 754.92 C 227.59 749.25 225.26 737.77 221.00 732.00
C 207.51 717.11 197.34 699.38 188.00 682.00
C 215.68 680.63 242.98 676.96 268.00 666.00
C 272.61 663.51 279.95 660.67 282.00 656.00
C 295.86 653.61 307.19 641.12 316.70 631.70 C 326.20 622.27 337.75 611.70 344.78 599.78 C 351.80 587.85 361.24 574.09 365.00 562.00
C 362.17 563.10 360.30 564.68 361.00 560.00
C 363.04 560.90 365.13 559.76 367.00 562.00
C 368.07 560.33 368.43 555.17 371.00 557.00
C 373.23 551.25 375.54 545.72 378.00 540.00
C 379.74 567.60 378.78 600.54 379.78 628.22 C 380.78 655.90 424.70 657.64 428.32 630.32 C 431.94 603.00 427.02 569.14 429.00 541.00
C 435.90 549.69 441.40 559.85 448.00 569.00
C 449.95 570.39 453.89 570.70 455.00 569.00
C 456.22 575.91 455.82 579.11 462.00 581.00
C 462.11 577.50 468.16 576.81 466.00 573.00
C 469.37 570.56 467.53 573.75 469.00 575.00
C 471.78 564.85 478.57 560.65 483.75 553.74 C 488.93 546.83 492.55 538.41 500.00 533.00
C 502.16 542.88 500.56 553.22 501.00 564.00 C 501.44 574.78 500.52 585.97 501.00 597.00 C 501.48 608.03 500.15 617.58 501.00 629.00 C 501.85 640.42 499.27 649.84 501.00 662.00 C 502.73 674.16 500.58 683.72 488.00 682.00 C 475.42 680.28 466.24 681.33 456.00 682.00 C 445.76 682.67 444.08 689.49 438.77 695.77 C 433.46 702.04 436.56 714.34 442.25 720.75 C 447.94 727.16 458.43 729.02 468.00 728.00 C 477.57 726.98 491.07 728.76 501.00 728.00
C 500.63 747.18 501.49 771.32 501.00 790.00 C 500.51 808.68 498.61 829.13 519.00 835.00 Z"/>
</g>
<g fill="#FCEEE4" fill-opacity="1.00" stroke="None">
<path d="
M 463.00 140.00 
C 484.86 138.27 505.23 134.75 528.00 135.00 C 550.77 135.25 572.12 136.94 594.00 140.00
C 591.99 137.35 577.17 139.41 584.00 136.00
C 562.30 132.43 545.07 134.80 523.00 134.00 C 500.93 133.20 482.06 134.45 463.00 140.00 Z"/>
</g>
<g fill="#FCC5B7" fill-opacity="1.00" stroke="None">
<path d="
M 463.00 140.00 
C 425.54 142.97 387.08 163.03 354.03 178.03 C 320.98 193.03 295.37 213.63 267.75 238.75 C 240.13 263.88 223.20 290.11 202.25 320.25 C 181.31 350.40 172.82 391.12 160.00 425.00
C 156.20 443.02 153.41 462.31 150.00 480.00
C 149.84 499.86 147.45 520.28 150.00 540.00
C 192.47 542.11 242.05 523.64 264.75 485.75 C 287.44 447.85 291.02 402.04 312.75 364.75 C 334.47 327.45 353.41 300.18 386.92 271.92 C 420.42 243.65 462.09 228.27 507.00 224.00 C 551.91 219.73 606.77 230.44 642.32 255.68 C 677.88 280.91 701.23 306.43 725.25 341.75 C 749.27 377.08 758.44 421.39 773.23 460.77 C 788.02 500.15 823.95 529.36 865.00 537.00
C 875.89 539.03 878.44 536.88 890.02 539.98 C 901.61 543.08 902.09 531.77 901.00 522.00 C 899.91 512.23 901.53 502.76 901.00 493.00
C 898.57 448.34 886.86 398.86 868.92 360.08 C 850.98 321.29 831.53 292.37 803.77 260.23 C 776.01 228.09 747.76 208.73 712.70 186.30 C 677.63 163.87 633.58 151.85 594.00 140.00
C 572.12 136.94 550.77 135.25 528.00 135.00 C 505.23 134.75 484.86 138.27 463.00 140.00
M 528.00 186.00 
C 537.29 188.49 532.91 204.40 523.33 201.67 C 513.75 198.93 517.84 183.27 528.00 186.00
M 441.00 200.00 
C 453.50 202.09 442.23 217.05 432.98 215.98 C 423.72 214.90 417.01 225.71 407.75 226.75 C 398.50 227.80 392.76 239.06 381.98 237.98 C 371.20 236.89 379.95 221.66 389.23 221.23 C 398.51 220.80 404.18 210.04 413.23 209.23 C 422.28 208.42 431.67 198.44 441.00 200.00
M 615.00 200.00 
C 621.58 201.05 630.38 206.29 637.01 207.99 C 643.64 209.70 652.16 215.44 657.70 218.30 C 663.24 221.17 676.31 223.47 674.99 232.01 C 673.67 240.55 660.32 235.27 654.75 231.25 C 649.19 227.22 640.89 224.67 633.77 221.23 C 626.65 217.78 619.51 215.75 610.98 213.02 C 602.44 210.30 603.00 198.08 615.00 200.00
M 352.00 241.00 
C 353.69 243.16 357.52 246.26 360.00 248.00
C 358.86 250.52 357.76 253.08 358.00 256.00
C 355.61 255.82 351.57 257.19 355.00 259.00
C 338.86 262.51 331.25 292.13 312.00 282.00
C 312.64 271.39 322.39 265.96 329.25 259.25 C 336.11 252.55 341.65 243.73 352.00 241.00
M 702.00 244.00 
C 708.24 245.39 711.15 254.13 717.68 256.32 C 724.21 258.51 724.33 267.23 731.75 270.25 C 739.18 273.27 736.37 287.38 728.33 283.67 C 720.29 279.96 721.17 273.35 714.25 269.75 C 707.33 266.16 705.97 260.46 698.75 257.25 C 691.53 254.04 691.18 241.58 702.00 244.00
M 778.00 335.00 
C 785.24 337.33 782.50 346.75 787.97 351.03 C 793.45 355.30 791.69 368.72 783.33 364.67 C 774.97 360.62 778.32 354.61 772.25 349.75 C 766.17 344.89 768.99 332.11 778.00 335.00
M 281.00 336.00 
C 283.60 348.07 277.88 350.82 271.68 360.68 C 265.48 370.54 253.24 360.80 260.92 351.92 C 268.59 343.04 266.92 333.51 281.00 336.00
M 255.00 381.00 
C 263.03 382.76 255.80 407.48 247.00 404.00 C 238.19 400.51 244.57 378.72 255.00 381.00
M 800.00 382.00 
C 806.94 384.86 807.75 404.79 799.32 402.66 C 790.89 400.54 790.77 378.20 800.00 382.00
M 826.00 442.00 
C 830.78 443.50 845.85 441.00 847.75 448.25 C 849.66 455.50 835.39 457.56 829.00 457.00 C 822.61 456.44 827.72 475.05 820.75 476.75 C 813.77 478.44 811.36 462.98 811.00 458.00
C 803.76 456.68 791.78 457.00 790.00 448.00
C 796.66 445.23 803.01 440.73 811.00 442.00
C 811.94 436.26 809.85 424.53 818.01 424.01 C 826.16 423.49 825.14 436.26 826.00 442.00 Z"/>
</g>
<g fill="#FBF1EA" fill-opacity="1.00" stroke="None">
<path d="
M 528.00 186.00 
C 517.84 183.27 513.75 198.93 523.33 201.67 C 532.91 204.40 537.29 188.49 528.00 186.00 Z"/>
</g>
<g fill="#FBF7EF" fill-opacity="1.00" stroke="None">
<path d="
M 441.00 200.00 
C 431.67 198.44 422.28 208.42 413.23 209.23 C 404.18 210.04 398.51 220.80 389.23 221.23 C 379.95 221.66 371.20 236.89 381.98 237.98 C 392.76 239.06 398.50 227.80 407.75 226.75 C 417.01 225.71 423.72 214.90 432.98 215.98 C 442.23 217.05 453.50 202.09 441.00 200.00 Z"/>
</g>
<g fill="#FCF6EF" fill-opacity="1.00" stroke="None">
<path d="
M 615.00 200.00 
C 603.00 198.08 602.44 210.30 610.98 213.02 C 619.51 215.75 626.65 217.78 633.77 221.23 C 640.89 224.67 649.19 227.22 654.75 231.25 C 660.32 235.27 673.67 240.55 674.99 232.01 C 676.31 223.47 663.24 221.17 657.70 218.30 C 652.16 215.44 643.64 209.70 637.01 207.99 C 630.38 206.29 621.58 201.05 615.00 200.00 Z"/>
</g>
<g fill="#F5D5C8" fill-opacity="1.00" stroke="None">
<path d="
M 352.00 241.00 
C 341.65 243.73 336.11 252.55 329.25 259.25 C 322.39 265.96 312.64 271.39 312.00 282.00
C 331.25 292.13 338.86 262.51 355.00 259.00
C 351.57 257.19 355.61 255.82 358.00 256.00
C 357.76 253.08 358.86 250.52 360.00 248.00
C 357.52 246.26 353.69 243.16 352.00 241.00
M 354.00 245.00 
C 361.51 247.26 355.21 257.86 349.75 259.75 C 344.30 261.65 339.29 269.34 333.92 271.92 C 328.55 274.50 325.13 285.59 317.99 283.99 C 310.85 282.39 315.75 270.70 321.25 268.25 C 326.74 265.80 330.63 257.52 336.23 255.23 C 341.83 252.94 347.07 242.91 354.00 245.00 Z"/>
</g>
<g fill="#CFF8F5" fill-opacity="1.00" stroke="None">
<path d="
M 430.00 272.00 
C 455.99 257.36 484.17 246.24 515.00 246.00
C 515.00 253.67 515.00 261.33 515.00 269.00
C 476.41 271.76 438.74 278.79 403.00 292.00
C 406.15 286.98 412.43 285.28 416.00 281.00
C 414.14 280.91 412.62 282.83 411.00 281.00
C 406.33 288.20 397.11 294.63 389.75 300.75 C 382.39 306.88 376.75 316.45 368.00 320.00
C 363.79 329.75 355.89 336.34 352.00 346.00
C 363.44 330.14 373.65 318.68 392.69 311.69 C 411.74 304.71 428.33 296.57 449.00 293.00 C 469.67 289.43 492.95 282.44 515.00 283.00
C 514.46 291.07 517.49 300.61 510.00 306.00
C 521.57 299.86 515.56 285.64 516.00 275.00 C 516.44 264.36 518.26 252.61 517.00 242.00
C 506.84 245.28 491.33 243.36 480.23 248.23 C 469.12 253.10 456.29 252.94 448.00 261.00
C 445.21 260.17 442.24 260.15 440.00 258.00
C 438.20 261.86 441.43 261.78 442.00 265.00
C 436.77 265.05 433.66 269.22 430.00 272.00 Z"/>
</g>
<g fill="#D0F7F4" fill-opacity="1.00" stroke="None">
<path d="
M 704.00 355.00 
C 706.51 359.65 709.84 363.86 711.00 369.00
C 701.67 363.40 693.32 358.18 682.92 354.08 C 672.53 349.97 662.78 344.98 651.93 341.07 C 641.07 337.17 630.35 333.09 618.92 330.08 C 607.50 327.06 595.86 324.50 583.99 322.01 C 572.12 319.52 562.73 315.31 550.93 311.07 C 539.12 306.84 532.16 295.40 536.00 282.00
C 563.59 284.54 596.64 288.76 622.22 296.78 C 647.81 304.79 669.78 311.91 688.00 332.00
C 682.08 323.54 674.63 315.44 666.75 308.25 C 658.87 301.06 652.49 292.87 643.00 287.00
C 643.76 287.83 644.48 289.04 645.00 290.00
C 610.68 276.79 573.56 271.09 536.00 269.00
C 536.00 261.33 536.00 253.67 536.00 246.00
C 550.25 245.70 563.56 249.09 577.00 252.00
C 572.46 247.67 561.13 243.91 554.02 244.02 C 546.91 244.14 531.72 241.15 534.00 251.00 C 536.28 260.85 532.61 270.25 533.01 278.99 C 533.40 287.73 532.66 297.03 536.75 304.25 C 540.83 311.47 548.81 312.70 555.75 316.25 C 562.70 319.79 571.62 320.86 578.98 324.02 C 586.34 327.19 597.63 325.17 604.99 329.01 C 612.36 332.84 621.68 332.86 629.78 335.22 C 637.87 337.58 644.60 341.74 651.99 344.01 C 659.39 346.28 666.96 350.21 673.99 353.01 C 681.02 355.81 687.86 359.33 694.25 363.75 C 700.65 368.16 707.66 366.08 714.00 372.00
C 712.69 364.96 707.94 360.57 704.00 355.00 Z"/>
</g>
<g fill="#FBF8F0" fill-opacity="1.00" stroke="None">
<path d="
M 702.00 244.00 
C 691.18 241.58 691.53 254.04 698.75 257.25 C 705.97 260.46 707.33 266.16 714.25 269.75 C 721.17 273.35 720.29 279.96 728.33 283.67 C 736.37 287.38 739.18 273.27 731.75 270.25 C 724.33 267.23 724.21 258.51 717.68 256.32 C 711.15 254.13 708.24 245.39 702.00 244.00 Z"/>
</g>
<g fill="#FBF9F1" fill-opacity="1.00" stroke="None">
<path d="
M 354.00 245.00 
C 347.07 242.91 341.83 252.94 336.23 255.23 C 330.63 257.52 326.74 265.80 321.25 268.25 C 315.75 270.70 310.85 282.39 317.99 283.99 C 325.13 285.59 328.55 274.50 333.92 271.92 C 339.29 269.34 344.30 261.65 349.75 259.75 C 355.21 257.86 361.51 247.26 354.00 245.00 Z"/>
</g>
<g fill="#77BEBE" fill-opacity="1.00" stroke="None">
<path d="
M 430.00 272.00 
C 425.17 274.72 420.50 277.52 416.00 281.00
C 412.43 285.28 406.15 286.98 403.00 292.00
C 438.74 278.79 476.41 271.76 515.00 269.00
C 515.00 261.33 515.00 253.67 515.00 246.00
C 484.17 246.24 455.99 257.36 430.00 272.00 Z"/>
</g>
<g fill="#79BDBD" fill-opacity="1.00" stroke="None">
<path d="
M 643.00 287.00 
C 621.39 273.62 601.85 258.73 577.00 252.00
C 563.56 249.09 550.25 245.70 536.00 246.00
C 536.00 253.67 536.00 261.33 536.00 269.00
C 573.56 271.09 610.68 276.79 645.00 290.00
C 644.48 289.04 643.76 287.83 643.00 287.00 Z"/>
</g>
<g fill="#79C1BF" fill-opacity="1.00" stroke="None">
<path d="
M 704.00 355.00 
C 699.64 346.93 693.38 339.69 688.00 332.00
C 669.78 311.91 647.81 304.79 622.22 296.78 C 596.64 288.76 563.59 284.54 536.00 282.00
C 532.16 295.40 539.12 306.84 550.93 311.07 C 562.73 315.31 572.12 319.52 583.99 322.01 C 595.86 324.50 607.50 327.06 618.92 330.08 C 630.35 333.09 641.07 337.17 651.93 341.07 C 662.78 344.98 672.53 349.97 682.92 354.08 C 693.32 358.18 701.67 363.40 711.00 369.00
C 709.84 363.86 706.51 359.65 704.00 355.00 Z"/>
</g>
<g fill="#7AC0BF" fill-opacity="1.00" stroke="None">
<path d="
M 352.00 346.00 
C 347.83 351.78 344.19 357.69 341.00 364.00
C 339.63 366.70 337.44 368.96 337.00 372.00
C 362.69 355.73 388.28 345.23 417.07 335.07 C 445.87 324.92 479.73 321.92 507.00 307.00
C 508.10 306.58 508.92 306.61 510.00 306.00
C 517.49 300.61 514.46 291.07 515.00 283.00
C 492.95 282.44 469.67 289.43 449.00 293.00 C 428.33 296.57 411.74 304.71 392.69 311.69 C 373.65 318.68 363.44 330.14 352.00 346.00 Z"/>
</g>
<g fill="#DFF7F1" fill-opacity="1.00" stroke="None">
<path d="
M 341.00 364.00 
C 337.45 363.01 335.35 370.46 336.00 374.00
C 349.56 372.22 360.57 357.90 375.00 356.00
C 372.65 350.30 384.40 351.61 388.92 348.92 C 393.45 346.24 404.74 344.73 409.77 342.78 C 414.81 340.83 419.62 336.27 426.92 334.92 C 434.23 333.58 440.92 331.15 447.78 328.78 C 454.64 326.41 463.65 326.15 470.30 324.30 C 476.94 322.45 481.66 316.94 488.98 315.98 C 496.29 315.01 501.03 310.38 507.00 307.00
C 479.73 321.92 445.87 324.92 417.07 335.07 C 388.28 345.23 362.69 355.73 337.00 372.00
C 337.44 368.96 339.63 366.70 341.00 364.00 Z"/>
</g>
<g fill="#E0F7F3" fill-opacity="1.00" stroke="None">
<path d="
M 441.00 347.00 
C 465.89 341.30 490.38 334.67 514.00 325.00
C 513.65 341.74 505.59 356.75 496.00 370.00
C 502.97 363.63 509.32 358.46 510.08 349.08 C 510.84 339.70 520.59 332.60 515.00 323.00
C 505.07 324.29 496.30 332.71 486.00 330.00
C 482.60 336.53 473.11 337.88 465.00 339.00 C 456.89 340.12 449.02 344.56 440.00 344.00
C 439.85 345.18 440.43 346.06 441.00 347.00 Z"/>
</g>
<g fill="#79C1C0" fill-opacity="1.00" stroke="None">
<path d="
M 656.00 448.00 
C 672.77 468.42 682.53 491.67 689.00 517.00
C 695.54 542.61 707.75 565.96 721.70 588.30 C 735.65 610.65 757.23 622.00 777.00 637.00
C 786.56 642.86 796.58 646.23 807.07 649.93 C 817.57 653.62 830.73 656.39 842.02 657.98 C 853.32 659.57 872.01 662.99 875.78 650.78 C 879.55 638.56 884.47 630.66 886.00 618.00
C 873.56 618.43 857.52 619.69 845.33 618.67 C 833.14 617.65 821.63 614.36 810.78 611.22 C 799.93 608.09 790.61 603.03 781.75 597.25 C 772.89 591.47 765.01 587.23 757.75 579.25 C 750.50 571.26 743.05 566.26 737.75 557.25 C 732.46 548.24 726.20 539.61 722.23 529.77 C 718.26 519.93 714.15 509.09 711.08 498.92 C 708.00 488.76 703.58 477.83 700.07 467.93 C 696.57 458.02 689.86 448.89 684.70 440.30 C 679.53 431.72 670.18 425.86 664.75 418.25 C 659.33 410.63 640.77 407.84 643.00 397.00 C 645.23 386.15 662.18 398.59 668.08 403.92 C 673.99 409.25 683.63 417.17 689.25 424.75 C 694.87 432.32 702.53 441.07 706.92 450.08 C 711.30 459.09 715.96 469.85 719.32 479.68 C 722.69 489.51 726.23 501.19 729.98 511.02 C 733.72 520.86 738.21 531.39 743.77 540.23 C 749.33 549.07 753.92 556.81 761.75 564.25 C 769.58 571.68 775.10 578.03 784.25 583.75 C 793.39 589.47 802.02 594.87 813.02 597.98 C 824.03 601.09 835.44 604.73 848.00 605.00 C 860.56 605.26 877.39 605.24 890.00 604.00
C 893.06 597.71 893.37 590.06 896.00 584.00
C 896.75 573.02 902.11 561.54 889.00 563.00 C 875.89 564.46 868.70 561.05 858.02 559.98 C 847.35 558.90 840.73 554.84 831.75 552.25 C 822.76 549.66 816.83 544.88 809.08 540.92 C 801.32 536.97 796.82 532.12 790.08 526.92 C 783.34 521.72 779.01 515.81 773.75 509.25 C 768.50 502.68 763.83 496.08 760.77 488.23 C 757.71 480.38 751.76 473.32 749.99 465.01 C 748.22 456.70 744.21 447.59 741.32 439.68 C 738.44 431.76 735.19 424.08 730.92 417.08 C 726.65 410.09 721.65 404.21 715.25 398.75 C 708.84 393.30 702.47 389.12 695.70 384.30 C 688.93 379.49 681.81 375.05 674.23 371.77 C 666.65 368.49 659.81 362.63 651.67 360.33 C 643.53 358.03 635.09 354.66 627.00 352.00
C 607.78 345.68 587.00 342.17 568.00 336.00
C 557.13 333.62 547.38 327.83 537.00 324.00
C 536.91 344.54 547.26 364.50 561.92 379.08 C 576.58 393.66 594.91 400.12 611.77 411.23 C 628.63 422.34 643.10 432.29 656.00 448.00 Z"/>
</g>
<g fill="#7AC1C0" fill-opacity="1.00" stroke="None">
<path d="
M 441.00 347.00 
C 432.06 349.05 423.29 351.08 415.00 355.00
C 400.71 361.76 385.47 367.60 371.00 375.00
C 351.30 385.07 327.97 399.62 316.31 420.31 C 304.64 440.99 297.11 469.60 288.00 492.00
C 275.53 522.65 242.00 543.82 213.00 554.00
C 199.49 558.74 184.75 562.00 170.00 562.00
C 164.74 562.51 157.97 563.70 152.00 563.00
C 152.77 577.14 156.46 590.56 160.00 604.00
C 172.38 605.20 188.65 605.16 201.00 605.00 C 213.35 604.84 225.38 601.68 236.02 598.02 C 246.67 594.37 256.35 590.25 265.08 584.08 C 273.80 577.91 280.50 572.40 287.75 564.75 C 295.01 557.10 300.07 549.30 305.31 540.31 C 310.54 531.31 315.19 520.73 318.92 510.92 C 322.66 501.12 326.45 489.61 329.78 479.78 C 333.10 469.94 337.35 459.15 342.31 450.31 C 347.26 441.46 353.16 431.57 359.25 424.25 C 365.34 416.94 374.88 408.94 381.08 404.08 C 387.28 399.22 404.14 385.98 406.97 397.03 C 409.81 408.07 390.89 410.53 385.75 417.75 C 380.62 424.98 370.16 430.95 365.25 439.25 C 360.33 447.55 352.65 456.61 349.23 466.23 C 345.81 475.85 341.72 487.28 338.07 497.07 C 334.42 506.86 331.74 518.40 326.70 527.70 C 321.65 536.99 318.03 547.51 312.03 556.03 C 306.03 564.55 300.50 571.42 292.75 578.75 C 285.01 586.09 278.97 591.97 269.92 597.92 C 260.86 603.87 251.19 607.63 240.32 611.32 C 229.45 615.01 217.38 616.68 205.00 618.00 C 192.62 619.32 177.03 617.97 164.00 618.00
C 164.81 630.96 171.30 635.14 173.78 648.22 C 176.25 661.31 191.60 660.06 203.01 658.01 C 214.42 655.96 226.63 655.92 237.22 652.22 C 247.81 648.52 256.61 645.04 267.00 641.00
C 296.40 629.87 321.14 600.38 336.00 574.00
C 354.71 540.78 359.79 500.65 380.00 469.00
C 390.62 444.96 413.54 429.22 434.25 415.25 C 454.95 401.27 481.86 391.92 496.00 370.00
C 505.59 356.75 513.65 341.74 514.00 325.00
C 490.38 334.67 465.89 341.30 441.00 347.00 Z"/>
</g>
<g fill="#FCF4EC" fill-opacity="1.00" stroke="None">
<path d="
M 778.00 335.00 
C 768.99 332.11 766.17 344.89 772.25 349.75 C 778.32 354.61 774.97 360.62 783.33 364.67 C 791.69 368.72 793.45 355.30 787.97 351.03 C 782.50 346.75 785.24 337.33 778.00 335.00 Z"/>
</g>
<g fill="#F6DCD1" fill-opacity="1.00" stroke="None">
<path d="
M 281.00 336.00 
C 266.92 333.51 268.59 343.04 260.92 351.92 C 253.24 360.80 265.48 370.54 271.68 360.68 C 277.88 350.82 283.60 348.07 281.00 336.00
M 277.00 337.00 
C 284.32 339.31 276.43 349.06 274.23 352.23 C 272.03 355.40 267.33 368.01 261.78 363.22 C 256.23 358.43 263.36 353.26 264.31 349.30 C 265.25 345.34 271.69 335.32 277.00 337.00 Z"/>
</g>
<g fill="#E0F6F2" fill-opacity="1.00" stroke="None">
<path d="
M 627.00 352.00 
C 625.82 350.51 623.04 349.76 624.00 347.00
C 606.54 344.09 588.78 340.76 568.00 336.00
C 587.00 342.17 607.78 345.68 627.00 352.00 Z"/>
</g>
<g fill="#FBFBF4" fill-opacity="1.00" stroke="None">
<path d="
M 277.00 337.00 
C 271.69 335.32 265.25 345.34 264.31 349.30 C 263.36 353.26 256.23 358.43 261.78 363.22 C 267.33 368.01 272.03 355.40 274.23 352.23 C 276.43 349.06 284.32 339.31 277.00 337.00 Z"/>
</g>
<g fill="#DCF6F0" fill-opacity="1.00" stroke="None">
<path d="
M 371.00 375.00 
C 385.47 367.60 400.71 361.76 415.00 355.00
C 407.94 356.26 399.56 357.15 392.03 362.03 C 384.49 366.90 378.85 369.99 371.00 375.00 Z"/>
</g>
<g fill="#FBC2B5" fill-opacity="1.00" stroke="None">
<path d="
M 527.00 369.00 
C 519.88 373.69 515.44 383.82 508.75 390.75 C 502.07 397.68 493.59 402.66 486.25 408.25 C 478.90 413.84 469.15 417.86 462.25 423.25 C 455.35 428.64 444.97 434.53 439.08 440.08 C 433.19 445.63 420.75 451.60 420.36 460.31 C 419.96 469.01 432.43 475.92 435.08 484.92 C 437.73 493.92 446.55 498.84 450.69 508.31 C 454.84 517.77 461.85 527.94 467.23 516.23 C 472.61 504.52 478.46 501.87 483.23 492.23 C 488.00 482.59 495.04 477.45 499.70 469.70 C 504.35 461.94 518.33 455.07 527.77 458.23 C 537.21 461.39 545.13 466.54 548.67 476.33 C 552.21 486.11 551.11 502.69 551.00 514.00 C 550.89 525.31 546.37 543.31 561.00 541.00 C 575.63 538.69 587.36 543.34 599.32 539.32 C 611.28 535.30 615.57 531.70 623.25 523.25 C 630.92 514.80 631.15 505.16 634.00 495.00 C 636.86 484.84 637.53 469.65 631.92 461.08 C 626.31 452.51 620.49 447.31 613.08 440.92 C 605.66 434.54 597.31 430.33 589.23 424.77 C 581.15 419.21 572.88 415.66 565.25 409.75 C 557.62 403.84 550.34 398.35 543.25 391.75 C 536.15 385.15 530.68 377.74 527.00 369.00 Z"/>
</g>
<g fill="#FCF2EB" fill-opacity="1.00" stroke="None">
<path d="
M 255.00 381.00 
C 244.57 378.72 238.19 400.51 247.00 404.00 C 255.80 407.48 263.03 382.76 255.00 381.00 Z"/>
</g>
<g fill="#FCF8EF" fill-opacity="1.00" stroke="None">
<path d="
M 800.00 382.00 
C 790.77 378.20 790.89 400.54 799.32 402.66 C 807.75 404.79 806.94 384.86 800.00 382.00 Z"/>
</g>
<g fill="#CBF7F3" fill-opacity="1.00" stroke="None">
<path d="
M 170.00 562.00 
C 162.55 562.93 150.96 558.20 149.93 566.92 C 148.91 575.64 152.60 580.02 154.01 587.99 C 155.42 595.97 159.19 600.98 160.00 609.00 C 160.81 617.02 163.73 623.84 162.00 632.00
C 165.28 630.70 168.65 641.12 169.93 642.92 C 171.21 644.72 170.11 652.01 172.75 654.81 C 175.38 657.62 178.34 662.46 183.33 661.67 C 188.31 660.87 197.98 661.77 202.93 660.93 C 207.88 660.08 218.38 661.07 216.00 658.00
C 225.17 656.42 236.01 654.64 244.93 652.93 C 253.84 651.21 258.87 641.76 268.00 644.00
C 267.97 642.86 266.47 642.28 267.00 641.00
C 256.61 645.04 247.81 648.52 237.22 652.22 C 226.63 655.92 214.42 655.96 203.01 658.01 C 191.60 660.06 176.25 661.31 173.78 648.22 C 171.30 635.14 164.81 630.96 164.00 618.00
C 177.03 617.97 192.62 619.32 205.00 618.00 C 217.38 616.68 229.45 615.01 240.32 611.32 C 251.19 607.63 260.86 603.87 269.92 597.92 C 278.97 591.97 285.01 586.09 292.75 578.75 C 300.50 571.42 306.03 564.55 312.03 556.03 C 318.03 547.51 321.65 536.99 326.70 527.70 C 331.74 518.40 334.42 506.86 338.07 497.07 C 341.72 487.28 345.81 475.85 349.23 466.23 C 352.65 456.61 360.33 447.55 365.25 439.25 C 370.16 430.95 380.62 424.98 385.75 417.75 C 390.89 410.53 409.81 408.07 406.97 397.03 C 404.14 385.98 387.28 399.22 381.08 404.08 C 374.88 408.94 365.34 416.94 359.25 424.25 C 353.16 431.57 347.26 441.46 342.31 450.31 C 337.35 459.15 333.10 469.94 329.78 479.78 C 326.45 489.61 322.66 501.12 318.92 510.92 C 315.19 520.73 310.54 531.31 305.31 540.31 C 300.07 549.30 295.01 557.10 287.75 564.75 C 280.50 572.40 273.80 577.91 265.08 584.08 C 256.35 590.25 246.67 594.37 236.02 598.02 C 225.38 601.68 213.35 604.84 201.00 605.00 C 188.65 605.16 172.38 605.20 160.00 604.00
C 156.46 590.56 152.77 577.14 152.00 563.00
C 157.97 563.70 164.74 562.51 170.00 562.00 Z"/>
</g>
<g fill="#CDF7F5" fill-opacity="1.00" stroke="None">
<path d="
M 777.00 637.00 
C 785.95 643.79 795.38 650.11 806.99 653.01 C 818.60 655.91 832.98 657.99 844.00 660.00 C 855.01 662.02 872.35 665.93 877.07 654.07 C 881.80 642.22 885.59 632.28 889.22 620.22 C 892.85 608.17 895.10 597.19 896.00 584.00
C 893.37 590.06 893.06 597.71 890.00 604.00
C 877.39 605.24 860.56 605.26 848.00 605.00 C 835.44 604.73 824.03 601.09 813.02 597.98 C 802.02 594.87 793.39 589.47 784.25 583.75 C 775.10 578.03 769.58 571.68 761.75 564.25 C 753.92 556.81 749.33 549.07 743.77 540.23 C 738.21 531.39 733.72 520.86 729.98 511.02 C 726.23 501.19 722.69 489.51 719.32 479.68 C 715.96 469.85 711.30 459.09 706.92 450.08 C 702.53 441.07 694.87 432.32 689.25 424.75 C 683.63 417.17 673.99 409.25 668.08 403.92 C 662.18 398.59 645.23 386.15 643.00 397.00 C 640.77 407.84 659.33 410.63 664.75 418.25 C 670.18 425.86 679.53 431.72 684.70 440.30 C 689.86 448.89 696.57 458.02 700.07 467.93 C 703.58 477.83 708.00 488.76 711.08 498.92 C 714.15 509.09 718.26 519.93 722.23 529.77 C 726.20 539.61 732.46 548.24 737.75 557.25 C 743.05 566.26 750.50 571.26 757.75 579.25 C 765.01 587.23 772.89 591.47 781.75 597.25 C 790.61 603.03 799.93 608.09 810.78 611.22 C 821.63 614.36 833.14 617.65 845.33 618.67 C 857.52 619.69 873.56 618.43 886.00 618.00
C 884.47 630.66 879.55 638.56 875.78 650.78 C 872.01 662.99 853.32 659.57 842.02 657.98 C 830.73 656.39 817.57 653.62 807.07 649.93 C 796.58 646.23 786.56 642.86 777.00 637.00 Z"/>
</g>
<g fill="#FCF7EF" fill-opacity="1.00" stroke="None">
<path d="
M 826.00 442.00 
C 825.14 436.26 826.16 423.49 818.01 424.01 C 809.85 424.53 811.94 436.26 811.00 442.00
C 803.01 440.73 796.66 445.23 790.00 448.00
C 791.78 457.00 803.76 456.68 811.00 458.00
C 811.36 462.98 813.77 478.44 820.75 476.75 C 827.72 475.05 822.61 456.44 829.00 457.00 C 835.39 457.56 849.66 455.50 847.75 448.25 C 845.85 441.00 830.78 443.50 826.00 442.00 Z"/>
</g>
<g fill="#FCECE5" fill-opacity="1.00" stroke="None">
<path d="
M 150.00 480.00 
C 153.41 462.31 156.20 443.02 160.00 425.00
C 156.69 427.36 158.10 440.73 154.00 437.00
C 154.09 451.41 147.38 466.43 150.00 480.00 Z"/>
</g>
<g fill="#DDF5F0" fill-opacity="1.00" stroke="None">
<path d="
M 689.00 517.00 
C 682.53 491.67 672.77 468.42 656.00 448.00
C 656.05 457.07 670.18 463.77 666.00 472.00
C 672.67 470.61 673.13 478.09 675.01 482.99 C 676.89 487.89 680.93 493.70 682.68 499.32 C 684.43 504.94 687.07 511.64 689.00 517.00 Z"/>
</g>
<g fill="#DDF6F1" fill-opacity="1.00" stroke="None">
<path d="
M 336.00 574.00 
C 343.32 566.33 349.34 554.12 353.08 542.08 C 356.83 530.05 364.40 518.79 366.69 505.69 C 368.99 492.60 374.66 481.08 380.00 469.00
C 359.79 500.65 354.71 540.78 336.00 574.00 Z"/>
</g>
<g fill="#DDF6F0" fill-opacity="1.00" stroke="None">
<path d="
M 213.00 554.00 
C 242.00 543.82 275.53 522.65 288.00 492.00
C 284.08 496.50 281.29 501.55 277.75 506.75 C 274.21 511.96 269.79 514.28 266.10 517.10 C 262.41 519.92 258.30 524.63 254.75 528.75 C 251.19 532.86 242.51 535.23 243.00 539.00
C 240.73 539.57 234.04 539.32 237.00 543.00
C 234.86 544.11 225.62 543.06 230.00 546.00
C 224.08 548.12 218.20 550.95 213.00 554.00 Z"/>
</g>
<g fill="#FAE9DF" fill-opacity="1.00" stroke="None">
<path d="
M 865.00 537.00 
C 876.03 540.48 888.72 541.83 901.00 542.00
C 903.09 539.30 906.19 524.65 902.00 531.00
C 902.09 518.00 904.03 504.86 901.00 493.00
C 901.53 502.76 899.91 512.23 901.00 522.00 C 902.09 531.77 901.61 543.08 890.02 539.98 C 878.44 536.88 875.89 539.03 865.00 537.00 Z"/>
</g>
<g fill="#D6F0E9" fill-opacity="1.00" stroke="None">
<path d="
M 448.00 569.00 
C 452.74 576.35 459.09 591.82 465.75 581.75 C 472.42 571.69 476.59 566.87 482.75 557.75 C 488.91 548.64 494.82 542.28 500.00 533.00
C 492.55 538.41 488.93 546.83 483.75 553.74 C 478.57 560.65 471.78 564.85 469.00 575.00
C 467.53 573.75 469.37 570.56 466.00 573.00
C 468.16 576.81 462.11 577.50 462.00 581.00
C 455.82 579.11 456.22 575.91 455.00 569.00
C 453.89 570.70 449.95 570.39 448.00 569.00 Z"/>
</g>
<g fill="#7AC2C1" fill-opacity="1.00" stroke="None">
<path d="
M 448.00 569.00 
C 441.40 559.85 435.90 549.69 429.00 541.00
C 427.02 569.14 431.94 603.00 428.32 630.32 C 424.70 657.64 380.78 655.90 379.78 628.22 C 378.78 600.54 379.74 567.60 378.00 540.00
C 375.54 545.72 373.23 551.25 371.00 557.00
C 353.42 602.35 315.42 648.93 268.00 666.00
C 242.98 676.96 215.68 680.63 188.00 682.00
C 197.34 699.38 207.51 717.11 221.00 732.00
C 229.29 733.87 241.50 729.24 250.02 729.02 C 258.54 728.81 268.77 724.97 276.69 722.69 C 284.62 720.41 292.38 716.69 298.75 711.75 C 305.12 706.82 311.13 702.60 316.25 696.25 C 321.36 689.89 327.01 685.08 332.00 679.00
C 337.36 670.16 344.84 662.15 350.00 653.00
C 354.23 672.54 342.83 691.37 329.00 705.00
C 343.09 700.81 357.51 697.04 373.00 698.00
C 363.93 718.66 336.84 725.30 316.00 722.00
C 302.51 720.03 291.26 733.82 276.99 735.99 C 262.73 738.16 246.23 745.07 231.00 745.00
C 249.47 772.77 276.90 796.74 303.00 817.00
C 303.28 817.23 303.91 817.65 304.00 818.00
C 319.85 828.07 335.79 839.16 352.00 848.00
C 370.65 853.66 385.86 864.60 404.93 870.07 C 423.99 875.55 444.30 881.13 464.00 885.00
C 510.77 894.19 567.27 889.70 612.02 880.02 C 656.78 870.35 688.70 853.21 728.00 832.00
C 764.71 812.19 793.48 777.23 821.00 746.00
C 812.57 742.12 800.31 743.70 791.00 742.00 C 781.69 740.30 772.19 738.02 763.33 735.67 C 754.46 733.33 747.68 727.98 738.98 726.03 C 730.27 724.07 725.27 715.21 718.00 712.00
C 687.86 712.90 657.42 686.21 656.00 656.00
C 671.04 663.18 681.53 680.54 697.00 687.00
C 691.91 674.40 687.35 660.21 691.00 646.00
C 704.21 659.56 713.88 676.54 720.00 694.00
C 727.27 711.64 748.50 715.26 765.67 722.33 C 782.85 729.40 812.02 731.35 832.00 731.00
C 835.17 725.95 838.88 720.35 843.00 716.00
C 849.11 704.59 857.59 694.01 862.00 682.00
C 817.69 681.97 772.57 666.54 738.75 639.25 C 704.93 611.96 686.81 578.60 672.00 540.00
C 660.96 559.43 651.90 575.83 630.23 587.23 C 608.56 598.63 576.43 596.21 551.00 596.00
C 552.50 609.85 549.00 626.43 551.00 640.00 C 553.00 653.57 546.62 669.66 552.00 682.00
C 560.93 677.76 576.40 682.78 586.00 681.00 C 595.60 679.22 604.60 684.45 610.75 691.25 C 616.90 698.04 616.87 710.41 611.23 718.23 C 605.59 726.05 596.16 728.84 586.00 728.00 C 575.84 727.16 561.54 728.63 551.00 728.00
C 552.92 750.03 548.44 776.40 551.00 798.00 C 553.56 819.60 542.60 841.26 519.00 835.00
C 498.61 829.13 500.51 808.68 501.00 790.00 C 501.49 771.32 500.63 747.18 501.00 728.00
C 491.07 728.76 477.57 726.98 468.00 728.00 C 458.43 729.02 447.94 727.16 442.25 720.75 C 436.56 714.34 433.46 702.04 438.77 695.77 C 444.08 689.49 445.76 682.67 456.00 682.00 C 466.24 681.33 475.42 680.28 488.00 682.00 C 500.58 683.72 502.73 674.16 501.00 662.00 C 499.27 649.84 501.85 640.42 501.00 629.00 C 500.15 617.58 501.48 608.03 501.00 597.00 C 500.52 585.97 501.44 574.78 501.00 564.00 C 500.56 553.22 502.16 542.88 500.00 533.00
C 494.82 542.28 488.91 548.64 482.75 557.75 C 476.59 566.87 472.42 571.69 465.75 581.75 C 459.09 591.82 452.74 576.35 448.00 569.00
M 345.00 760.00 
C 352.21 761.94 355.57 771.96 363.25 774.75 C 370.92 777.55 375.38 785.61 384.08 787.92 C 392.77 790.24 397.23 797.48 407.69 798.31 C 418.16 799.13 420.46 814.83 409.00 813.00 C 397.54 811.17 395.10 806.12 385.77 803.23 C 376.44 800.33 371.98 794.79 363.77 791.23 C 355.57 787.67 351.91 780.56 343.92 777.08 C 335.92 773.61 331.95 756.50 345.00 760.00
M 673.00 807.00 
C 668.18 808.76 663.58 810.98 658.00 810.00
C 657.90 817.96 655.25 825.03 652.00 832.00
C 646.16 827.76 643.76 817.81 644.00 810.00
C 637.75 810.79 633.67 808.68 627.93 807.07 C 622.19 805.46 622.79 799.98 628.23 798.23 C 633.68 796.48 638.12 794.85 644.00 795.00
C 644.17 792.28 643.39 789.33 645.00 787.00
C 645.83 781.77 645.68 773.65 652.00 772.00
C 655.91 778.64 659.02 785.80 658.00 794.00
C 665.03 790.58 672.11 786.44 678.25 781.25 C 684.39 776.06 693.74 775.44 698.08 767.08 C 702.43 758.73 718.29 760.01 714.67 769.67 C 711.05 779.33 701.39 778.04 696.25 785.25 C 691.12 792.46 682.11 793.36 676.00 799.00
C 676.81 801.04 679.27 801.97 680.00 804.00
C 677.93 805.70 675.59 806.55 673.00 807.00 Z"/>
</g>
<g fill="#DAF2EB" fill-opacity="1.00" stroke="None">
<path d="
M 268.00 666.00 
C 315.42 648.93 353.42 602.35 371.00 557.00
C 368.43 555.17 368.07 560.33 367.00 562.00
C 365.13 559.76 363.04 560.90 361.00 560.00
C 360.30 564.68 362.17 563.10 365.00 562.00
C 361.24 574.09 351.80 587.85 344.78 599.78 C 337.75 611.70 326.20 622.27 316.70 631.70 C 307.19 641.12 295.86 653.61 282.00 656.00
C 279.95 660.67 272.61 663.51 268.00 666.00 Z"/>
</g>
<g fill="#F3FAF4" fill-opacity="1.00" stroke="None">
<path d="
M 718.00 712.00 
C 721.17 711.91 724.13 711.23 727.00 710.00
C 726.66 704.38 720.86 700.21 720.00 694.00
C 713.88 676.54 704.21 659.56 691.00 646.00
C 687.35 660.21 691.91 674.40 697.00 687.00
C 681.53 680.54 671.04 663.18 656.00 656.00
C 657.42 686.21 687.86 712.90 718.00 712.00 Z"/>
</g>
<g fill="#F2FAF3" fill-opacity="1.00" stroke="None">
<path d="
M 332.00 679.00 
C 324.27 691.75 311.94 701.68 301.30 711.30 C 290.67 720.93 311.02 720.55 316.00 722.00
C 336.84 725.30 363.93 718.66 373.00 698.00
C 357.51 697.04 343.09 700.81 329.00 705.00
C 342.83 691.37 354.23 672.54 350.00 653.00
C 344.84 662.15 337.36 670.16 332.00 679.00 Z"/>
</g>
<g fill="#D1F7F3" fill-opacity="1.00" stroke="None">
<path d="
M 221.00 732.00 
C 225.26 737.77 227.59 749.25 233.08 754.92 C 238.58 760.59 243.79 765.20 248.70 772.30 C 253.61 779.41 262.36 782.00 265.00 790.00
C 277.98 793.16 288.63 817.82 303.00 817.00
C 276.90 796.74 249.47 772.77 231.00 745.00
C 246.23 745.07 262.73 738.16 276.99 735.99 C 291.26 733.82 302.51 720.03 316.00 722.00
C 311.02 720.55 290.67 720.93 301.30 711.30 C 311.94 701.68 324.27 691.75 332.00 679.00
C 327.01 685.08 321.36 689.89 316.25 696.25 C 311.13 702.60 305.12 706.82 298.75 711.75 C 292.38 716.69 284.62 720.41 276.69 722.69 C 268.77 724.97 258.54 728.81 250.02 729.02 C 241.50 729.24 229.29 733.87 221.00 732.00 Z"/>
</g>
<g fill="#E0F8F3" fill-opacity="1.00" stroke="None">
<path d="
M 552.00 682.00 
C 557.44 685.01 571.36 682.92 581.00 683.00 C 590.65 683.08 599.89 683.95 608.00 689.00
C 609.10 693.65 607.96 698.34 613.00 698.00
C 612.43 708.18 611.08 722.07 599.07 724.07 C 587.07 726.08 576.23 730.58 562.02 726.98 C 547.82 723.37 547.31 734.85 549.00 748.00 C 550.69 761.16 550.09 773.05 548.00 785.00 C 545.91 796.95 549.68 812.04 547.00 824.00
C 543.81 825.52 542.28 830.70 536.68 832.68 C 531.08 834.66 525.49 835.81 519.00 835.00
C 542.60 841.26 553.56 819.60 551.00 798.00 C 548.44 776.40 552.92 750.03 551.00 728.00
C 561.54 728.63 575.84 727.16 586.00 728.00 C 596.16 728.84 605.59 726.05 611.23 718.23 C 616.87 710.41 616.90 698.04 610.75 691.25 C 604.60 684.45 595.60 679.22 586.00 681.00 C 576.40 682.78 560.93 677.76 552.00 682.00 Z"/>
</g>
<g fill="#CEF7F5" fill-opacity="1.00" stroke="None">
<path d="
M 718.00 712.00 
C 725.27 715.21 730.27 724.07 738.98 726.03 C 747.68 727.98 754.46 733.33 763.33 735.67 C 772.19 738.02 781.69 740.30 791.00 742.00 C 800.31 743.70 812.57 742.12 821.00 746.00
C 828.23 737.80 836.66 726.68 843.00 716.00
C 838.88 720.35 835.17 725.95 832.00 731.00
C 812.02 731.35 782.85 729.40 765.67 722.33 C 748.50 715.26 727.27 711.64 720.00 694.00
C 720.86 700.21 726.66 704.38 727.00 710.00
C 724.13 711.23 721.17 711.91 718.00 712.00 Z"/>
</g>
<g fill="#CDF6F5" fill-opacity="1.00" stroke="None">
<path d="
M 345.00 760.00 
C 331.95 756.50 335.92 773.61 343.92 777.08 C 351.91 780.56 355.57 787.67 363.77 791.23 C 371.98 794.79 376.44 800.33 385.77 803.23 C 395.10 806.12 397.54 811.17 409.00 813.00 C 420.46 814.83 418.16 799.13 407.69 798.31 C 397.23 797.48 392.77 790.24 384.08 787.92 C 375.38 785.61 370.92 777.55 363.25 774.75 C 355.57 771.96 352.21 761.94 345.00 760.00 Z"/>
</g>
<g fill="#CDF7F4" fill-opacity="1.00" stroke="None">
<path d="
M 645.00 787.00 
C 646.32 783.26 647.66 775.27 652.00 773.00
C 656.47 780.54 655.19 789.13 657.00 797.00
C 663.32 794.38 669.53 798.21 676.00 800.00
C 675.48 802.38 675.04 804.81 673.00 807.00
C 675.59 806.55 677.93 805.70 680.00 804.00
C 679.27 801.97 676.81 801.04 676.00 799.00
C 682.11 793.36 691.12 792.46 696.25 785.25 C 701.39 778.04 711.05 779.33 714.67 769.67 C 718.29 760.01 702.43 758.73 698.08 767.08 C 693.74 775.44 684.39 776.06 678.25 781.25 C 672.11 786.44 665.03 790.58 658.00 794.00
C 659.02 785.80 655.91 778.64 652.00 772.00
C 645.68 773.65 645.83 781.77 645.00 787.00 Z"/>
</g>
<g fill="#F4FBF5" fill-opacity="1.00" stroke="None">
<path d="
M 645.00 787.00 
C 643.39 789.33 644.17 792.28 644.00 795.00
C 638.12 794.85 633.68 796.48 628.23 798.23 C 622.79 799.98 622.19 805.46 627.93 807.07 C 633.67 808.68 637.75 810.79 644.00 810.00
C 643.76 817.81 646.16 827.76 652.00 832.00
C 655.25 825.03 657.90 817.96 658.00 810.00
C 663.58 810.98 668.18 808.76 673.00 807.00
C 675.04 804.81 675.48 802.38 676.00 800.00
C 669.53 798.21 663.32 794.38 657.00 797.00
C 655.19 789.13 656.47 780.54 652.00 773.00
C 647.66 775.27 646.32 783.26 645.00 787.00 Z"/>
</g>
<g fill="#DDF5F2" fill-opacity="1.00" stroke="None">
<path d="
M 352.00 848.00 
C 335.79 839.16 319.85 828.07 304.00 818.00
C 305.71 824.99 315.30 825.23 318.25 830.41 C 321.19 835.59 329.56 836.21 333.92 839.08 C 338.28 841.96 346.62 846.37 352.00 848.00 Z"/>
</g>
<g fill="#E0F8F3" fill-opacity="1.00" stroke="None">
<path d="
M 464.00 885.00 
C 477.45 891.56 494.76 891.20 511.00 892.00 C 527.24 892.80 549.10 892.12 564.99 889.99 C 580.89 887.87 598.07 886.68 612.92 883.92 C 627.78 881.17 639.78 872.87 653.00 870.00 C 666.21 867.12 679.86 859.48 691.78 854.78 C 703.69 850.07 710.35 843.17 723.00 839.00
C 721.17 836.42 725.82 833.67 728.00 832.00
C 688.70 853.21 656.78 870.35 612.02 880.02 C 567.27 889.70 510.77 894.19 464.00 885.00 Z"/>
</g>
</svg>