<?xml version="1.0" standalone="no"?>
<!DOCTYPE svg PUBLIC "-//W3C//DTD SVG 20010904//EN"
 "http://www.w3.org/TR/2001/REC-SVG-20010904/DTD/svg10.dtd">
<svg version="1.0" xmlns="http://www.w3.org/2000/svg"
 width="157.000000pt" height="51.000000pt" viewBox="0 0 157.000000 51.000000"
 preserveAspectRatio="xMidYMid meet">

<g transform="translate(0.000000,51.000000) scale(0.100000,-0.100000)"
fill="#000000" stroke="none">
<path d="M12 469 c-2 -44 13 -58 65 -64 37 -5 37 -4 6 4 -45 12 -61 27 -66 64
-4 32 -4 32 -5 -4z"/>
<path d="M718 440 c-41 -27 -123 -118 -171 -190 l-17 -24 0 26 c0 59 -57 72
-108 25 -31 -28 -66 -77 -60 -83 3 -2 17 14 31 36 28 41 80 76 98 64 19 -11 4
-105 -26 -172 -41 -92 -24 -86 25 10 76 147 213 308 275 324 82 20 81 -38 -3
-207 -71 -144 -81 -174 -57 -183 23 -9 61 14 158 94 48 39 89 66 92 60 10 -17
23 -11 18 8 -2 10 3 24 12 32 21 18 32 4 13 -17 -20 -25 -9 -67 20 -71 12 -2
44 8 73 22 28 14 52 26 55 26 7 0 -17 -53 -37 -81 -11 -16 -17 -34 -13 -40 4
-7 3 -9 -3 -6 -5 3 -17 -9 -26 -28 -11 -24 -13 -36 -5 -41 14 -9 41 27 69 95
39 98 102 171 115 137 9 -23 -24 -76 -46 -76 -11 0 -20 -5 -20 -11 0 -26 146
21 167 53 5 9 9 3 13 -17 4 -21 12 -31 27 -33 24 -4 126 43 145 66 7 7 -17 -2
-53 -22 -93 -51 -114 -47 -89 18 7 20 6 26 -5 26 -7 0 -17 -5 -21 -11 -9 -15
-95 -69 -110 -69 -10 0 -9 7 2 28 18 34 18 47 -1 62 -12 10 -20 9 -39 -4 -17
-11 -26 -12 -28 -4 -3 7 -12 4 -26 -10 -25 -25 -114 -72 -137 -72 -19 0 -19
23 0 59 14 27 13 29 -8 35 -12 3 -24 6 -27 6 -3 0 -26 -19 -50 -42 -106 -98
-215 -176 -228 -163 -3 3 24 66 62 140 94 185 100 255 21 255 -18 0 -50 -12
-77 -30z"/>
<path d="M240 440 c-36 -10 -58 -18 -50 -19 8 0 40 6 70 14 30 8 72 15 93 15
l37 0 0 -45 c0 -52 -29 -134 -94 -262 -31 -62 -42 -93 -33 -93 8 0 21 8 29 18
22 25 62 104 64 127 1 11 14 51 28 88 28 72 34 145 14 165 -17 17 -81 13 -158
-8z"/>
<path d="M133 413 c9 -2 23 -2 30 0 6 3 -1 5 -18 5 -16 0 -22 -2 -12 -5z"/>
<path d="M885 91 c-3 -5 0 -13 6 -17 8 -4 7 -9 -2 -15 -11 -7 -10 -9 4 -9 9 0
17 7 17 15 0 8 -6 15 -12 15 -9 0 -8 4 2 10 9 6 10 10 3 10 -6 0 -14 -4 -18
-9z"/>
<path d="M932 75 c0 -16 2 -22 5 -12 2 9 2 23 0 30 -3 6 -5 -1 -5 -18z"/>
<path d="M970 94 c0 -6 9 -19 20 -29 20 -18 20 -17 19 11 0 24 -2 26 -8 9 -8
-19 -8 -19 -19 0 -6 11 -12 15 -12 9z"/>
<path d="M1164 84 c-4 -10 -8 -21 -10 -24 -1 -3 8 -5 21 -5 20 0 22 3 13 20
-15 29 -17 30 -24 9z"/>
<path d="M1211 78 c-1 -21 4 -28 17 -28 11 0 13 3 6 8 -7 4 -14 16 -17 27 -4
15 -5 14 -6 -7z"/>
<path d="M1264 85 c-4 -9 -2 -21 4 -27 15 -15 44 -1 40 19 -4 23 -36 29 -44 8z
m36 -10 c0 -8 -7 -15 -15 -15 -8 0 -15 7 -15 15 0 8 7 15 15 15 8 0 15 -7 15
-15z"/>
<path d="M1330 75 c0 -22 2 -24 14 -13 9 8 10 15 4 19 -6 4 -5 9 3 12 10 4 9
6 -3 6 -13 1 -18 -7 -18 -24z"/>
<path d="M1380 75 c0 -17 5 -25 18 -25 14 0 15 2 2 10 -13 9 -13 10 0 10 13 0
13 2 1 9 -11 7 -10 10 5 14 16 4 16 5 -3 6 -18 1 -23 -4 -23 -24z"/>
<path d="M1436 84 c-5 -13 -3 -14 6 -7 7 6 20 13 28 16 10 4 8 6 -6 6 -12 1
-25 -6 -28 -15z"/>
<path d="M1502 75 c0 -16 2 -22 5 -12 2 9 2 23 0 30 -3 6 -5 -1 -5 -18z"/>
<path d="M1533 78 c-9 -21 -8 -23 13 -23 27 0 29 4 11 29 -12 17 -14 16 -24
-6z"/>
<path d="M1448 53 c6 -2 18 -2 25 0 6 3 1 5 -13 5 -14 0 -19 -2 -12 -5z"/>
</g>
</svg>
