<?xml version="1.0" encoding="utf-8"?>
<!-- Generator: Adobe Illustrator 24.2.3, SVG Export Plug-In . SVG Version: 6.00 Build 0)  -->
<svg version="1.1" id="Layer_1" xmlns="http://www.w3.org/2000/svg" xmlns:xlink="http://www.w3.org/1999/xlink" x="0px" y="0px"
	 viewBox="0 0 26 26" style="enable-background:new 0 0 26 26;" xml:space="preserve">
<style type="text/css">
	.st0{fill:#FFFFFF;}
</style>
<g transform="scale(.0325)">
	<g>
		<g>
			<path class="st0" d="M676.3,675.6H54c-29.8,0-54-26.4-54-58.9V143.3c0-32.5,24.2-58.8,54-58.8h430.6v54.4H54
				c-2.1,0-3.9,2-3.9,4.4v473.4c0,2.5,1.7,4.5,3.9,4.5h622.3c2.3,0,4-2,4-4.5V242h50.1v374.7C730.5,649,706.3,675.6,676.3,675.6z"/>
		</g>
		<g>
			<rect x="354.1" y="529.7" class="st0" width="22.1" height="1.7"/>
		</g>
		<g>
			<path class="st0" d="M247.6,797.4l-21.5-49.1c32-16.5,47.5-55.2,37-91.9l47.9-16.1C328.5,702.2,301.2,769.7,247.6,797.4z"/>
		</g>
		<g>
			<path class="st0" d="M496.1,797.5c-54.1-27.4-81.7-94.9-64.3-157.1l48,15.8c-10.2,36.4,5.9,75.9,37.6,91.9L496.1,797.5z"/>
		</g>
		<g>
			<path class="st0" d="M573.7,800H156.8c-13.9,0-25.1-12.2-25.1-27.3c0-15.1,11.2-27.3,25.1-27.3h416.8c13.9,0,25.1,12.2,25.1,27.3
				C598.7,788,587.6,800,573.7,800z"/>
		</g>
		<g>
			<path class="st0" d="M235,368c-46.4,0-84-40.9-84-91.2s37.7-91.2,84-91.2s84.1,40.9,84.1,91.2S281.4,368,235,368z M235,240.1
				c-18.7,0-33.8,16.5-33.8,36.7s15.2,36.7,33.8,36.7c18.7,0,34-16.5,34-36.7S253.7,240.1,235,240.1z"/>
		</g>
		<g>
			<path class="st0" d="M379.7,557.9H90.9v-27.3c0-86.2,64.7-156.5,144.1-156.6c0.1,0,0.3,0,0.3,0c38.5,0,74.6,16.3,101.9,45.9
				c27.3,29.6,42.4,69,42.5,110.9V557.9z M144.4,503.4h181.7c-11.1-43.3-47.6-75-90.8-75c-0.1,0-0.1,0-0.3,0
				C191.8,428.4,155.3,460.2,144.4,503.4z"/>
		</g>
		<g>
			<path class="st0" d="M530.3,344.3l-22.2-28.2l-0.3-46.9h-9c-21.9-0.4-39-19-39.6-42.4V43c0-23.7,17.8-43,39.6-43h261.5
				C782.2,0,800,19.3,800,43v183.5c0,23.5-17.6,42.8-39.3,42.8H628.3L530.3,344.3z M532.9,214.8H558v41.8l54.4-41.8h137.4V54.4
				H509.5v160.3h23.4V214.8z"/>
		</g>
	</g>
</g>
</svg>
